<?xml version="1.0" standalone="no"?>
<!DOCTYPE svg PUBLIC "-//W3C//DTD SVG 20010904//EN"
 "http://www.w3.org/TR/2001/REC-SVG-20010904/DTD/svg10.dtd">
<svg version="1.0" xmlns="http://www.w3.org/2000/svg"
 width="3596.000000pt" height="2034.000000pt" viewBox="0 0 3596.000000 2034.000000"
 preserveAspectRatio="xMidYMid meet">

<g transform="translate(0.000000,2034.000000) scale(0.100000,-0.100000)"
fill="#000000" stroke="none">
<path d="M0 10170 l0 -10170 17980 0 17980 0 0 10170 0 10170 -17980 0 -17980
0 0 -10170z m9090 8808 c33 -17 51 -35 68 -68 21 -43 22 -52 22 -377 l0 -333
-80 0 -80 0 0 160 0 160 -240 0 -240 0 0 -160 0 -160 -80 0 -81 0 3 348 3 347
24 34 c47 65 74 71 371 71 256 0 267 -1 310 -22z m880 0 c70 -35 90 -85 90
-218 0 -122 -17 -173 -71 -211 -30 -21 -47 -24 -143 -27 l-109 -4 79 -79 79
-79 82 0 83 0 0 -80 0 -80 -112 0 -112 0 -161 160 -161 160 -47 0 -47 0 0
-160 0 -160 -80 0 -80 0 0 400 0 400 333 0 c325 0 334 -1 377 -22z m970 -58
l0 -80 -320 0 -320 0 0 -240 0 -240 320 0 320 0 0 -80 0 -81 -349 3 c-337 3
-351 4 -378 24 -15 11 -38 36 -50 54 -23 32 -23 39 -23 317 0 303 1 313 52
360 12 12 34 26 48 32 15 6 163 10 363 10 l337 1 0 -80z m230 -80 l0 -160 240
0 240 0 0 160 0 160 80 0 80 0 0 -400 0 -400 -80 0 -80 0 0 160 0 160 -237 -2
-238 -3 -3 -157 -3 -158 -79 0 -80 0 0 393 c0 217 3 397 7 400 3 4 39 7 80 7
l73 0 0 -160z m1520 80 l0 -80 -160 0 -160 0 0 -240 0 -240 160 0 160 0 0 -80
0 -80 -400 0 -400 0 0 80 0 80 160 0 160 0 0 240 0 240 -160 0 -160 0 0 73 c0
41 3 77 7 80 3 4 183 7 400 7 l393 0 0 -80z m880 0 l0 -80 -160 0 -160 0 0
-320 0 -320 -80 0 -80 0 0 320 0 320 -160 0 -160 0 0 80 0 80 400 0 400 0 0
-80z m880 0 l0 -80 -320 0 -320 0 0 -80 0 -80 320 0 320 0 0 -80 0 -80 -320 0
-320 0 0 -80 0 -80 320 0 320 0 0 -80 0 -81 -349 3 c-335 3 -351 4 -377 24
-15 11 -37 33 -48 48 -20 26 -21 40 -21 324 l0 297 24 34 c48 68 66 71 439 71
l332 0 0 -80z m880 0 l0 -80 -320 0 -320 0 0 -240 0 -240 320 0 320 0 0 -80 0
-81 -349 3 c-335 3 -351 4 -377 24 -15 11 -37 33 -48 48 -20 26 -21 40 -21
324 l0 297 24 34 c48 68 66 71 439 71 l332 0 0 -80z m880 0 l0 -80 -160 0
-160 0 0 -320 0 -320 -80 0 -80 0 0 320 0 320 -160 0 -160 0 0 80 0 80 400 0
400 0 0 -80z m230 -240 l0 -320 240 0 240 0 0 320 0 320 80 0 80 0 0 -344 c0
-339 0 -343 -22 -376 -13 -18 -36 -43 -51 -54 -27 -20 -42 -21 -310 -24 -279
-3 -283 -3 -326 20 -29 16 -52 37 -65 63 -20 38 -21 59 -24 364 -2 178 -1 330
2 337 4 10 26 14 81 14 l75 0 0 -320z m1447 294 c64 -47 73 -75 73 -214 0
-115 -2 -130 -22 -160 -44 -64 -68 -75 -185 -78 l-106 -4 79 -79 79 -79 77 0
78 0 0 -80 0 -80 -111 0 -112 0 -162 161 -163 160 -43 -3 -44 -3 -3 -157 -3
-158 -79 0 -80 0 0 393 c0 217 3 397 7 401 4 4 161 5 349 4 330 -3 344 -4 371
-24z m953 -54 l0 -80 -320 0 -320 0 0 -80 0 -80 320 0 320 0 0 -80 0 -80 -320
0 -320 0 0 -80 0 -80 320 0 320 0 0 -80 0 -80 -337 0 c-331 0 -339 1 -378 23
-26 14 -48 37 -62 67 -22 43 -23 54 -23 311 0 258 1 267 23 309 16 30 37 51
67 67 43 23 48 23 377 23 l333 0 0 -80z m1230 58 c33 -17 51 -35 68 -68 21
-43 22 -54 22 -310 0 -297 -6 -324 -71 -371 l-34 -24 -297 0 c-284 0 -298 1
-324 21 -15 11 -37 33 -48 48 -20 26 -21 40 -21 324 l0 297 24 34 c47 65 74
71 371 71 256 0 267 -1 310 -22z m331 -195 l0 -218 109 -93 c60 -51 115 -95
123 -98 7 -2 64 39 130 96 l117 101 0 214 0 215 80 0 80 0 0 -237 c0 -170 -4
-245 -13 -263 -15 -31 -269 -254 -319 -280 -45 -24 -92 -25 -134 -2 -47 25
-299 243 -318 274 -14 22 -16 63 -16 267 l0 241 80 0 80 0 1 -217z m1519 137
l0 -80 -320 0 -320 0 0 -80 0 -80 320 0 320 0 0 -80 0 -80 -320 0 -320 0 0
-80 0 -80 320 0 320 0 0 -80 0 -81 -349 3 c-337 3 -351 4 -378 24 -15 11 -38
36 -50 54 -23 32 -23 39 -23 317 0 303 1 313 52 360 12 12 34 26 48 32 15 6
163 10 363 10 l337 1 0 -80z m797 54 c64 -47 73 -75 73 -214 0 -115 -2 -130
-22 -160 -44 -64 -68 -75 -185 -78 l-106 -4 79 -79 79 -79 77 0 78 0 0 -80 0
-80 -111 0 -112 0 -162 161 -163 160 -43 -3 -44 -3 -3 -157 -3 -158 -79 0 -80
0 0 393 c0 217 3 397 7 401 4 4 161 5 349 4 330 -3 344 -4 371 -24z m313 -188
l0 -214 116 -98 c63 -55 120 -100 125 -102 5 -2 60 41 124 95 l115 98 0 218 0
217 80 0 80 0 0 -244 c0 -134 -3 -251 -6 -260 -8 -21 -298 -268 -332 -283 -36
-16 -76 -16 -115 1 -54 23 -323 261 -336 297 -12 35 -16 471 -4 482 3 4 39 7
80 7 l73 0 0 -214z m1520 134 l0 -80 -160 0 -160 0 0 -240 0 -240 160 0 160 0
0 -80 0 -80 -400 0 -400 0 0 80 0 80 160 0 160 0 0 240 0 240 -160 0 -160 0 0
80 0 80 400 0 400 0 0 -80z m880 0 l0 -80 -320 0 -320 0 0 -80 0 -80 320 0
320 0 0 -80 0 -80 -320 0 -320 0 0 -80 0 -80 320 0 320 0 0 -80 0 -81 -349 3
c-335 3 -351 4 -377 24 -15 11 -37 33 -48 48 -20 26 -21 40 -21 324 l0 297 24
34 c48 68 66 71 439 71 l332 0 0 -80z m240 -240 l0 -320 80 0 80 0 0 320 0
320 80 0 80 0 0 -320 0 -320 80 0 80 0 0 320 0 320 80 0 80 0 0 -332 c0 -373
-3 -391 -71 -439 l-34 -24 -297 0 c-284 0 -298 1 -324 21 -15 11 -37 33 -48
48 -20 26 -21 42 -24 377 l-3 349 81 0 80 0 0 -320z m-7908 -2142 c-10 -1861
-32 -6448 -32 -6650 l0 -248 -40 0 -40 0 5 718 c5 585 35 6314 35 6585 l0 77
38 0 37 0 -3 -482z m-9950 -499 l3 -171 33 -29 c36 -32 90 -39 137 -17 48 22
55 52 55 228 l0 160 35 0 35 0 0 -165 c0 -118 -4 -175 -14 -198 -47 -110 -205
-140 -300 -57 -46 41 -56 89 -56 269 l0 151 34 0 34 0 4 -171z m588 46 c27
-14 60 -51 60 -66 0 -4 -12 -10 -27 -14 -19 -4 -31 -2 -38 9 -26 35 -97 38
-118 5 -19 -30 1 -47 75 -69 114 -33 149 -92 92 -159 -51 -61 -163 -64 -221
-5 -41 40 -41 50 -2 58 26 5 35 1 51 -19 23 -30 81 -34 110 -8 37 34 12 62
-77 82 -73 17 -105 49 -105 103 0 75 120 124 200 83z m378 -12 c37 -27 62 -80
62 -130 l0 -43 -120 0 c-115 0 -120 -1 -120 -21 0 -11 13 -34 29 -50 38 -37
91 -40 125 -6 18 18 32 23 55 19 30 -4 30 -4 15 -34 -34 -65 -146 -84 -222
-38 -82 50 -95 204 -24 284 43 48 147 58 200 19z m202 1 l0 -26 31 26 c18 15
43 26 60 26 26 0 29 -4 29 -30 0 -26 -3 -30 -29 -30 -15 0 -40 -9 -55 -21 -26
-20 -26 -22 -26 -145 l0 -124 -35 0 -35 0 0 175 0 175 30 0 c26 0 30 -4 30
-26z m375 12 c18 -8 41 -28 49 -44 16 -30 16 -31 -14 -37 -24 -5 -34 -2 -48
14 -40 46 -136 19 -116 -34 3 -8 25 -20 48 -26 103 -28 128 -41 142 -75 22
-53 -1 -99 -63 -126 -43 -19 -54 -20 -103 -10 -82 17 -132 82 -74 96 20 5 31
1 49 -19 30 -32 86 -34 115 -5 28 28 11 56 -43 70 -114 30 -141 51 -139 112 1
32 33 74 67 88 32 14 93 11 130 -4z m-705 -1620 l0 -425 53 -3 c75 -4 75 -27
1 -126 -63 -84 -71 -92 -96 -92 -18 0 -148 163 -148 185 0 22 25 35 67 35 l43
0 0 425 0 425 40 0 40 0 0 -424z m1014 -1622 c19 -18 19 -20 6 -45 -18 -32
-80 -19 -80 17 0 17 28 44 45 44 7 0 21 -7 29 -16z m-5491 -20 c28 -15 67 -68
67 -91 0 -8 -13 -13 -33 -13 -26 0 -37 6 -47 25 -35 66 -170 46 -170 -25 0
-37 23 -55 108 -80 82 -24 140 -69 143 -110 3 -53 -2 -70 -31 -104 -74 -84
-243 -67 -290 28 -11 23 -20 45 -20 49 0 4 16 7 35 7 28 0 37 -5 45 -24 12
-32 42 -48 95 -48 74 -2 116 43 91 94 -9 17 -35 31 -103 53 -102 34 -120 46
-139 91 -26 62 21 141 96 163 42 12 114 5 153 -15z m2421 -86 c20 -57 49 -141
65 -188 23 -68 30 -81 37 -65 5 11 34 94 65 185 l56 165 37 3 c20 2 36 0 36
-5 0 -4 -36 -107 -79 -228 l-79 -220 -43 0 -43 0 -82 228 -81 227 37 0 38 0
36 -102z m1136 -128 l0 -230 -35 0 -35 0 0 230 0 230 35 0 35 0 0 -230z
m-3320 160 c0 -39 1 -40 35 -40 32 0 35 -2 35 -30 0 -28 -3 -30 -35 -30 l-35
0 0 -96 c0 -107 9 -134 45 -134 14 0 25 -3 25 -7 0 -5 3 -18 6 -30 6 -21 3
-23 -40 -23 -36 0 -52 6 -71 25 -24 23 -25 30 -25 144 l0 120 -27 3 c-22 2
-28 8 -28 28 0 20 6 26 28 28 24 3 27 7 27 43 0 37 2 39 30 39 28 0 30 -2 30
-40z m840 0 c0 -39 1 -40 35 -40 32 0 35 -2 35 -30 0 -28 -3 -30 -35 -30 l-35
0 0 -103 c0 -109 6 -127 47 -127 13 0 23 -6 23 -14 0 -8 3 -21 6 -30 5 -13 -2
-16 -43 -16 -40 0 -54 5 -74 26 -22 24 -24 35 -27 145 l-4 119 -25 0 c-21 0
-24 4 -21 28 2 19 9 28 26 30 18 3 22 10 22 43 0 38 1 39 35 39 34 0 35 -1 35
-40z m2660 1 c0 -37 2 -40 33 -43 27 -2 33 -8 35 -30 3 -26 1 -28 -33 -28
l-36 0 3 -112 c3 -112 3 -113 28 -117 27 -3 40 -17 40 -43 0 -30 -84 -25 -115
7 -24 23 -25 30 -25 145 l0 120 -25 0 c-21 0 -25 5 -25 30 0 25 4 30 25 30 23
0 25 4 25 40 0 39 1 40 35 40 34 0 35 -1 35 -39z m3600 -1 c0 -39 1 -40 35
-40 32 0 35 -2 35 -30 0 -28 -3 -30 -35 -30 l-35 0 0 -96 c0 -107 9 -134 45
-134 14 0 25 -3 25 -7 0 -5 3 -18 6 -30 6 -21 3 -23 -40 -23 -36 0 -52 6 -71
25 -24 23 -25 30 -25 144 l0 120 -27 3 c-22 2 -28 8 -28 28 0 20 6 26 28 28
24 3 27 7 27 43 0 37 2 39 30 39 28 0 30 -2 30 -40z m1200 0 c0 -39 1 -40 35
-40 32 0 35 -2 35 -30 0 -28 -3 -30 -35 -30 l-36 0 3 -112 3 -113 30 -5 c24
-4 31 -11 33 -33 3 -25 1 -27 -37 -27 -86 0 -101 26 -101 180 l0 110 -25 0
c-21 0 -25 5 -25 30 0 25 4 30 25 30 23 0 25 4 25 40 0 39 1 40 35 40 34 0 35
-1 35 -40z m-8082 -66 c3 -22 3 -22 27 2 16 16 35 24 60 24 32 0 35 -2 35 -29
0 -26 -4 -29 -42 -34 -69 -9 -78 -28 -78 -168 l0 -119 -35 0 -35 0 0 176 0
175 33 -3 c24 -2 33 -8 35 -24z m382 8 c52 -26 60 -50 60 -199 l0 -133 -35 0
c-29 0 -35 4 -35 20 l0 21 -22 -20 c-46 -44 -142 -34 -176 17 -21 32 -20 97 2
121 17 18 57 32 146 48 36 6 46 12 48 31 2 13 -2 30 -8 38 -18 21 -83 18 -113
-6 -27 -22 -44 -25 -66 -11 -12 8 -12 13 3 36 35 53 129 71 196 37z m600 0
c42 -22 80 -90 80 -144 l0 -38 -120 0 c-118 0 -120 0 -120 -22 1 -68 102 -104
151 -54 18 18 32 23 52 19 34 -7 34 -23 1 -57 -60 -60 -177 -55 -233 10 -34
39 -45 84 -39 155 12 116 128 183 228 131z m333 7 c12 -6 30 -21 39 -33 17
-21 18 -21 18 12 0 29 3 32 30 32 l30 0 0 -206 0 -206 -28 -28 c-60 -60 -175
-63 -238 -7 -33 29 -35 32 -18 44 25 18 42 16 71 -7 32 -25 93 -26 122 -2 15
12 23 33 28 72 l6 55 -25 -23 c-66 -60 -173 -39 -212 41 -22 48 -21 143 3 187
35 67 116 99 174 69z m299 -119 c23 -71 45 -130 49 -130 3 0 24 57 45 128 l40
127 37 3 c20 2 37 1 37 -2 0 -26 -157 -426 -174 -444 -22 -23 -83 -39 -109
-29 -10 3 -13 15 -10 31 4 21 11 26 34 26 29 0 59 30 59 60 0 9 -27 90 -60
181 -33 90 -60 167 -60 172 0 4 15 7 34 7 l35 0 43 -130z m882 116 c60 -25 66
-44 66 -198 l0 -138 -30 0 c-24 0 -30 4 -30 21 l0 20 -25 -20 c-81 -63 -195
-20 -195 74 0 66 42 96 152 109 61 8 73 20 54 57 -16 34 -86 39 -115 10 -22
-22 -47 -26 -70 -12 -12 8 -12 13 1 33 34 52 124 73 192 44z m226 -102 c0
-144 12 -174 73 -174 16 0 38 10 52 25 24 23 25 30 25 145 l0 120 35 0 35 0 0
-175 0 -175 -35 0 c-31 0 -35 3 -35 26 l0 26 -31 -26 c-36 -31 -101 -35 -138
-10 -40 28 -51 73 -51 202 0 65 3 122 7 125 3 4 19 7 35 7 l28 0 0 -116z
m1401 86 c4 -14 7 -19 8 -13 1 18 55 43 91 43 21 0 41 -9 60 -28 l28 -29 25
25 c16 16 40 26 69 29 40 5 49 2 79 -25 l34 -30 3 -146 3 -146 -35 0 -36 0 0
127 c0 104 -3 130 -17 145 -21 24 -68 23 -93 -2 -18 -18 -20 -33 -20 -145 l0
-125 -35 0 -35 0 0 127 c0 104 -3 130 -17 145 -22 24 -62 23 -90 -4 -22 -20
-23 -29 -23 -145 l0 -123 -35 0 -35 0 0 176 0 175 32 -3 c25 -2 34 -9 39 -28z
m699 12 c52 -26 60 -50 60 -199 l0 -133 -35 0 c-29 0 -35 4 -35 20 l0 21 -22
-20 c-46 -44 -142 -34 -176 17 -21 32 -20 97 2 121 17 18 57 32 146 48 36 6
46 12 48 31 2 13 -2 30 -8 38 -18 21 -83 18 -113 -6 -27 -22 -44 -25 -66 -11
-12 8 -12 13 3 36 35 53 129 71 196 37z m218 -159 l2 -173 -35 0 -35 0 0 176
0 175 33 -3 32 -3 3 -172z m152 145 c0 -33 1 -33 18 -12 37 46 101 57 152 27
45 -26 54 -56 58 -200 l4 -133 -35 0 -35 0 -4 124 c-2 105 -6 127 -22 145 -25
28 -73 27 -103 -1 -22 -20 -23 -29 -23 -145 l0 -123 -35 0 -35 0 0 175 0 175
30 0 c27 0 30 -3 30 -32z m695 18 c33 -14 75 -66 75 -93 0 -25 -51 -14 -80 17
-40 43 -88 42 -125 -2 -25 -29 -27 -38 -23 -96 4 -55 8 -68 32 -88 15 -13 36
-24 46 -24 30 0 69 21 75 42 5 13 16 18 41 18 19 0 34 -5 34 -11 0 -24 -41
-77 -68 -87 -54 -21 -71 -23 -116 -11 -84 21 -124 91 -114 200 11 114 118 178
223 135z m383 -12 c38 -28 72 -100 72 -153 0 -57 -34 -128 -73 -151 -71 -44
-160 -30 -211 34 -29 35 -31 44 -31 116 0 88 13 115 76 158 28 20 43 23 87 20
31 -3 64 -13 80 -24z m212 -5 l0 -30 24 28 c21 25 31 28 81 28 51 0 59 -3 86
-33 l29 -32 0 -140 0 -140 -30 0 -30 0 0 105 c0 155 -27 201 -106 181 -39 -10
-54 -59 -54 -181 l0 -105 -35 0 -35 0 0 168 c0 93 3 172 7 175 3 4 19 7 35 7
25 0 28 -4 28 -31z m610 5 l0 -26 31 26 c18 15 43 26 60 26 26 0 29 -4 29 -30
0 -26 -3 -30 -29 -30 -15 0 -40 -9 -55 -21 -26 -20 -26 -22 -26 -145 l0 -124
-35 0 -35 0 0 175 0 175 30 0 c26 0 30 -4 30 -26z m385 12 c55 -23 65 -56 65
-206 l0 -130 -35 0 c-29 0 -35 4 -35 22 0 21 0 21 -26 -3 -34 -32 -110 -34
-151 -3 -37 28 -53 86 -32 122 19 34 51 50 136 65 57 10 68 16 71 33 7 52 -80
74 -125 32 -19 -17 -28 -19 -54 -12 l-31 9 23 29 c42 53 124 71 194 42z m365
-1 c35 -18 70 -61 70 -86 0 -32 -52 -25 -78 11 -38 51 -111 38 -138 -25 -37
-90 8 -185 87 -185 12 0 34 14 49 30 34 37 80 42 80 9 0 -31 -59 -85 -102 -93
-88 -16 -167 36 -188 124 -30 123 41 228 153 230 21 0 51 -7 67 -15z m-4050
-145 l0 -30 -100 0 -100 0 0 30 0 30 100 0 100 0 0 -30z m20540 -205 c26 -32
-13 -81 -47 -59 -35 22 -23 74 17 74 10 0 23 -7 30 -15z m5136 -7 c-3 -13 -6
-26 -6 -30 0 -5 -13 -8 -28 -8 -34 0 -52 -16 -52 -46 0 -19 6 -23 38 -26 32
-3 37 -6 37 -28 0 -22 -5 -25 -37 -28 l-38 -3 0 -145 0 -144 -35 0 -35 0 0
145 0 145 -25 0 c-21 0 -25 5 -25 30 0 25 4 30 24 30 20 0 24 6 29 42 8 60 42
88 109 88 47 0 50 -1 44 -22z m-14883 -12 c56 -24 80 -59 85 -124 3 -48 0 -63
-20 -92 -32 -47 -69 -63 -155 -68 l-73 -4 0 -79 0 -79 -35 0 -35 0 0 230 0
230 100 0 c63 0 113 -5 133 -14z m3657 -216 l0 -230 -35 0 -35 0 0 230 0 230
35 0 35 0 0 -230z m2235 8 c44 -121 82 -225 83 -230 2 -4 -14 -8 -36 -8 l-39
0 -18 60 -18 60 -91 0 -91 0 -21 -57 c-20 -56 -22 -58 -59 -61 -28 -3 -36 0
-33 10 3 7 40 111 83 231 l78 217 41 0 41 0 80 -222z m225 -8 l0 -230 -40 0
-40 0 0 230 0 230 40 0 40 0 0 -230z m510 212 c93 -46 107 -179 25 -239 l-28
-20 47 -85 c25 -47 46 -88 46 -92 0 -3 -17 -6 -37 -6 -37 0 -39 2 -82 85 l-44
85 -49 0 -48 0 0 -85 0 -85 -40 0 -40 0 0 230 0 230 108 0 c82 0 115 -4 142
-18z m2000 -182 l0 -200 105 0 105 0 0 -30 0 -30 -140 0 -140 0 0 230 0 230
35 0 35 0 0 -200z m4010 176 c0 -15 -48 -94 -119 -198 l-119 -173 119 -3 119
-3 0 -29 0 -30 -165 0 c-160 0 -165 1 -165 21 0 11 54 100 121 197 l120 177
-120 3 -121 3 0 29 0 30 165 0 165 0 0 -24z m162 -87 l3 -110 95 110 c94 109
96 110 138 111 l44 0 -19 -24 c-10 -13 -50 -60 -90 -104 l-72 -79 89 -121 c50
-66 90 -123 90 -126 0 -3 -18 -6 -39 -6 -38 0 -41 3 -111 101 l-72 101 -29
-28 c-27 -26 -29 -33 -29 -101 l0 -73 -35 0 -35 0 0 230 0 230 35 0 34 0 3
-111z m751 97 c56 -24 80 -59 85 -124 3 -48 0 -63 -20 -92 -32 -47 -69 -63
-155 -68 l-73 -4 0 -79 0 -79 -35 0 -35 0 0 230 0 230 100 0 c63 0 113 -5 133
-14z m-5923 -56 c0 -39 1 -40 35 -40 32 0 35 -2 35 -30 0 -28 -3 -30 -35 -30
l-35 0 0 -103 c0 -109 6 -127 47 -127 13 0 23 -6 23 -14 0 -8 3 -21 6 -30 5
-13 -2 -16 -43 -16 -40 0 -54 5 -74 26 -22 24 -24 35 -27 145 l-4 119 -25 0
c-21 0 -24 4 -21 28 2 19 9 28 26 30 18 3 22 10 22 43 0 38 1 39 35 39 34 0
35 -1 35 -40z m-7400 -66 l0 -26 31 26 c18 15 43 26 60 26 26 0 29 -4 29 -30
0 -26 -3 -30 -29 -30 -15 0 -40 -9 -55 -21 -26 -20 -26 -22 -26 -145 l0 -124
-35 0 -35 0 0 175 0 175 30 0 c26 0 30 -4 30 -26z m385 12 c55 -23 65 -56 65
-206 l0 -130 -35 0 c-29 0 -35 4 -35 22 0 21 0 21 -26 -3 -34 -32 -110 -34
-151 -3 -37 28 -53 86 -32 122 19 34 51 50 136 65 57 10 68 16 71 33 7 52 -80
74 -125 32 -19 -17 -28 -19 -54 -12 l-31 9 23 29 c42 53 124 71 194 42z m362
-20 l22 -26 3 28 c2 23 8 28 36 30 l33 3 -3 -206 -3 -207 -36 -32 c-59 -55
-167 -57 -233 -5 -33 26 -33 45 0 53 17 5 33 0 51 -14 34 -26 92 -26 127 1 22
17 26 28 26 72 l0 52 -18 -23 c-10 -13 -34 -27 -53 -31 -114 -24 -197 78 -171
208 12 58 29 82 77 113 42 27 111 19 142 -16z m243 3 l0 -30 23 26 c16 20 35
28 69 32 42 5 50 2 76 -24 l30 -29 22 23 c44 46 126 41 164 -10 18 -25 21 -45
24 -168 l4 -139 -36 0 -36 0 0 125 c0 112 -2 127 -20 145 -24 24 -67 26 -92 3
-16 -14 -18 -33 -18 -145 l0 -128 -35 0 -35 0 0 125 c0 112 -2 127 -20 145
-26 26 -64 25 -90 -2 -18 -19 -20 -35 -20 -145 l0 -123 -35 0 -35 0 0 175 0
175 30 0 c27 0 30 -3 30 -31z m705 17 c55 -23 65 -56 65 -206 l0 -130 -35 0
c-29 0 -35 4 -35 22 0 21 0 21 -26 -3 -34 -32 -110 -34 -151 -3 -37 28 -53 86
-32 122 19 34 51 50 136 65 57 10 68 16 71 33 7 52 -80 74 -125 32 -19 -17
-28 -19 -54 -12 l-31 9 23 29 c42 53 124 71 194 42z m553 -13 c49 -36 66 -70
70 -136 6 -100 -34 -165 -115 -186 -78 -21 -152 12 -184 83 -43 95 -7 214 76
253 40 18 120 11 153 -14z m212 1 l0 -26 31 26 c18 15 43 26 60 26 26 0 29 -4
29 -30 0 -26 -3 -30 -29 -30 -15 0 -40 -9 -55 -21 -26 -20 -26 -22 -26 -145
l0 -124 -35 0 -35 0 0 175 0 175 30 0 c26 0 30 -4 30 -26z m385 12 c55 -23 65
-56 65 -206 l0 -130 -35 0 c-29 0 -35 4 -35 22 0 21 0 21 -26 -3 -34 -32 -110
-34 -151 -3 -37 28 -53 86 -32 122 19 34 51 50 136 65 57 10 68 16 71 33 7 52
-80 74 -125 32 -19 -17 -28 -19 -54 -12 l-31 9 23 29 c42 53 124 71 194 42z
m365 -1 c35 -18 70 -61 70 -86 0 -32 -52 -25 -78 11 -38 51 -111 38 -138 -25
-37 -90 8 -185 87 -185 12 0 34 14 49 30 34 37 80 42 80 9 0 -31 -59 -85 -102
-93 -88 -16 -167 36 -188 124 -30 123 41 228 153 230 21 0 51 -7 67 -15z m538
-12 c37 -27 62 -80 62 -130 l0 -43 -120 0 c-115 0 -120 -1 -120 -21 0 -11 13
-34 29 -50 38 -37 91 -40 125 -6 18 18 32 23 55 19 30 -4 30 -4 15 -34 -34
-65 -146 -84 -222 -38 -82 50 -95 204 -24 284 43 48 147 58 200 19z m3040 1
c38 -28 72 -100 72 -153 0 -57 -34 -128 -73 -151 -71 -44 -160 -30 -211 34
-29 35 -31 44 -31 116 0 88 13 115 76 158 28 20 43 23 87 20 31 -3 64 -13 80
-24z m214 -98 c2 -105 6 -127 22 -145 26 -29 76 -28 104 2 19 20 22 36 24 142
l3 120 33 3 32 3 0 -175 0 -176 -35 0 c-30 0 -35 3 -35 25 l0 24 -25 -24 c-19
-19 -35 -25 -70 -25 -95 0 -117 36 -123 202 -2 65 -2 124 1 133 4 9 19 15 36
15 l29 0 4 -124z m758 106 c42 -22 80 -90 80 -144 l0 -38 -120 0 c-118 0 -120
0 -120 -22 1 -68 102 -104 151 -54 18 18 32 23 52 19 34 -7 34 -23 1 -57 -60
-60 -177 -55 -233 10 -34 39 -45 84 -39 155 12 116 128 183 228 131z m220 -11
l0 -29 29 29 c20 19 40 29 60 29 28 0 31 -3 31 -33 0 -31 -2 -33 -30 -29 -23
3 -36 -3 -60 -26 -30 -30 -30 -31 -30 -146 l0 -116 -35 0 -35 0 0 168 c0 93 3
172 7 175 3 4 19 7 35 7 24 0 28 -4 28 -29z m938 3 c38 -28 72 -100 72 -153 0
-57 -34 -128 -73 -151 -71 -44 -160 -30 -211 34 -29 35 -31 44 -31 116 0 88
13 115 76 158 28 20 43 23 87 20 31 -3 64 -13 80 -24z m325 15 c12 -6 30 -21
39 -33 17 -21 18 -21 18 12 0 31 2 33 33 30 l32 -3 3 -160 c4 -193 -2 -236
-34 -274 -49 -58 -183 -63 -241 -9 -30 28 -29 46 2 54 17 4 33 -1 51 -15 33
-26 94 -28 124 -3 17 14 24 32 28 73 l4 54 -30 -28 c-59 -56 -164 -31 -202 48
-68 140 52 316 173 254z m277 -164 l0 -175 -35 0 -35 0 0 168 c0 93 3 172 7
175 3 4 19 7 35 7 l28 0 0 -175z m305 161 c33 -14 75 -66 75 -93 0 -25 -51
-14 -80 17 -40 43 -88 42 -125 -2 -25 -29 -27 -38 -23 -96 4 -55 8 -68 32 -88
15 -13 36 -24 46 -24 30 0 69 21 75 42 5 13 16 18 41 18 19 0 34 -5 34 -11 0
-24 -41 -77 -68 -87 -54 -21 -71 -23 -116 -11 -84 21 -124 91 -114 200 11 114
118 178 223 135z m3725 -12 l0 -26 31 26 c18 15 43 26 60 26 26 0 29 -4 29
-30 0 -26 -3 -30 -29 -30 -15 0 -40 -9 -55 -21 -26 -20 -26 -22 -26 -145 l0
-124 -35 0 -35 0 0 175 0 175 30 0 c26 0 30 -4 30 -26z m390 5 c52 -30 80 -83
80 -153 0 -98 -42 -159 -120 -177 -89 -20 -168 30 -190 120 -38 160 98 284
230 210z m379 2 c68 -35 100 -118 80 -211 -32 -148 -225 -173 -295 -37 -23 43
-21 138 3 184 38 74 135 103 212 64z m-2029 -851 l0 -100 115 0 115 0 0 100 0
100 35 0 35 0 0 -230 0 -230 -35 0 -35 0 0 100 0 100 -115 0 -115 0 0 -100 0
-100 -35 0 -35 0 0 230 0 230 35 0 35 0 0 -100z m1430 -130 l0 -230 -30 0
c-26 0 -30 4 -30 27 l0 27 -28 -27 c-41 -39 -81 -44 -138 -17 -37 18 -51 32
-66 68 -27 61 -21 165 11 211 49 68 128 81 186 30 l35 -31 0 86 0 86 30 0 30
0 0 -230z m170 0 l0 -230 -35 0 -35 0 0 230 0 230 35 0 35 0 0 -230z m-20089
-345 l524 -504 30 29 c32 31 68 39 81 18 9 -14 34 -161 34 -200 0 -42 -23 -48
-132 -34 -93 12 -128 26 -128 50 0 6 13 28 30 48 l30 36 -526 507 -525 507 22
24 c12 13 25 24 29 24 4 0 243 -227 531 -505z m-8323 454 l23 -27 -593 -502
c-326 -277 -595 -505 -597 -507 -3 -2 7 -16 21 -31 31 -33 39 -54 28 -72 -9
-14 -104 -29 -192 -29 -75 -1 -78 18 -27 211 14 54 42 59 88 15 l36 -36 594
505 c327 277 594 503 595 502 1 -2 11 -15 24 -29z m3732 -443 l0 -475 53 -3
c45 -3 52 -6 55 -26 5 -31 -104 -180 -137 -189 -28 -7 -58 22 -128 124 -46 67
-39 86 31 91 l46 3 0 475 0 474 40 0 40 0 0 -474z m23674 440 c60 -25 66 -44
66 -198 l0 -138 -30 0 c-24 0 -30 4 -30 21 l0 20 -25 -20 c-81 -63 -195 -20
-195 74 0 66 42 96 152 109 61 8 73 20 54 57 -16 34 -86 39 -115 10 -22 -22
-47 -26 -70 -12 -12 8 -12 13 1 33 34 52 124 73 192 44z m226 -17 l0 -30 24
28 c21 25 31 28 81 28 51 0 59 -3 86 -33 l29 -32 0 -140 0 -140 -30 0 -30 0 0
105 c0 122 -15 171 -54 181 -79 20 -106 -26 -106 -181 l0 -105 -35 0 -35 0 0
168 c0 93 3 172 7 175 3 4 19 7 35 7 25 0 28 -4 28 -31z m1098 4 c37 -27 62
-80 62 -130 l0 -43 -120 0 c-115 0 -120 -1 -120 -21 0 -11 13 -34 29 -50 38
-37 91 -40 125 -6 18 18 32 23 55 19 30 -4 30 -4 15 -34 -34 -65 -146 -84
-222 -38 -82 50 -95 204 -24 284 43 48 147 58 200 19z m202 1 l0 -26 31 26
c18 15 43 26 60 26 26 0 29 -4 29 -30 0 -26 -3 -30 -29 -30 -15 0 -40 -9 -55
-21 -26 -20 -26 -22 -26 -145 l0 -124 -35 0 -35 0 0 175 0 175 30 0 c26 0 30
-4 30 -26z m-5566 -1266 c22 -35 -27 -74 -59 -48 -20 17 -19 47 3 59 23 14 42
10 56 -11z m-5294 -13 c40 -21 90 -84 90 -114 0 -6 -15 -11 -34 -11 -26 0 -36
5 -41 20 -11 36 -54 60 -105 60 -82 0 -130 -58 -130 -160 0 -102 48 -160 130
-160 51 0 94 24 105 60 5 15 15 20 41 20 19 0 34 -5 34 -11 0 -32 -50 -93 -95
-117 -39 -20 -133 -19 -173 2 -137 71 -147 317 -15 403 50 33 137 36 193 8z
m-3183 -2 c54 -25 75 -66 70 -136 -3 -46 -9 -63 -31 -86 -30 -32 -94 -51 -166
-51 l-40 0 0 -75 0 -75 -35 0 -35 0 0 220 0 220 101 0 c74 0 111 -5 136 -17z
m2384 -6 c18 -12 39 -39 47 -59 12 -31 12 -40 -3 -71 -9 -19 -26 -39 -38 -44
-22 -10 -22 -11 6 -24 51 -23 73 -102 44 -158 -23 -46 -71 -61 -189 -61 l-108
0 0 220 0 220 104 0 c91 0 107 -3 137 -23z m469 -7 l0 -30 -70 0 -70 0 0 -190
0 -190 -30 0 -30 0 0 190 0 190 -70 0 -70 0 0 30 0 30 170 0 170 0 0 -30z
m3140 12 c48 -26 72 -74 67 -136 -4 -41 -10 -55 -39 -82 l-35 -32 43 -78 c24
-44 44 -82 44 -86 0 -5 -16 -8 -34 -8 -33 0 -37 4 -81 85 l-47 85 -44 0 -44 0
0 -85 0 -85 -35 0 -35 0 0 220 0 220 103 0 c80 0 110 -4 137 -18z m570 -58 l0
-75 26 20 c32 25 92 28 135 5 40 -20 68 -84 69 -154 0 -98 -52 -162 -134 -164
-37 -1 -50 4 -75 28 l-31 30 0 -27 c0 -23 -4 -27 -30 -27 l-30 0 0 220 0 220
35 0 35 0 0 -76z m710 -144 l0 -220 -30 0 -30 0 0 220 0 220 30 0 30 0 0 -220z
m4642 105 c22 -60 57 -159 78 -218 l39 -108 -35 3 c-33 3 -38 7 -58 58 l-22
55 -84 0 -83 0 -20 -57 c-20 -55 -23 -58 -54 -58 -18 0 -33 3 -33 8 0 4 34
103 76 220 l77 213 40 -3 40 -3 39 -110z m3278 -12 l1 -128 67 73 c61 66 71
72 105 72 l39 0 -66 -71 -65 -72 61 -81 c34 -45 66 -87 71 -93 7 -10 0 -13
-31 -13 -38 0 -43 4 -92 70 -29 39 -55 70 -59 70 -20 0 -31 -30 -31 -82 0 -58
0 -58 -30 -58 -29 0 -30 2 -31 48 -1 54 -1 386 0 390 1 1 15 2 31 2 l30 0 0
-127z m-1602 55 c3 -35 6 -38 33 -38 24 0 29 -4 29 -25 0 -21 -5 -25 -30 -25
l-30 0 0 -105 0 -105 28 -12 c15 -7 28 -12 28 -13 1 0 5 -10 8 -22 7 -22 4
-23 -39 -23 -35 0 -51 6 -70 25 -24 23 -25 30 -25 140 l0 115 -25 0 c-20 0
-25 5 -25 25 0 20 5 25 25 25 23 0 25 4 25 41 0 39 1 40 33 37 29 -3 32 -6 35
-40z m-13270 -66 c3 -30 1 -32 -29 -32 -20 0 -42 -9 -56 -22 -21 -20 -23 -29
-23 -135 l0 -113 -30 0 c-26 0 -30 4 -31 28 0 15 -1 88 -2 162 l-2 135 33 3
c27 3 32 0 32 -19 l0 -22 23 20 c22 21 52 33 72 29 6 -2 11 -17 13 -34z m263
13 c42 -22 49 -49 49 -191 l0 -124 -30 0 c-24 0 -30 4 -30 21 l0 20 -25 -20
c-35 -27 -78 -35 -120 -21 -44 14 -65 44 -65 90 0 67 34 91 148 105 60 8 72
23 48 60 -21 32 -72 34 -110 4 -18 -14 -34 -19 -51 -15 -33 8 -31 18 10 55 31
27 43 31 91 31 30 0 68 -7 85 -15z m334 -10 l25 -24 0 24 c0 22 5 25 35 25
l35 0 -1 -172 c0 -189 -8 -229 -51 -261 -54 -40 -175 -31 -218 16 -26 27 -25
35 3 42 15 4 37 -2 61 -16 26 -15 45 -20 68 -15 51 10 68 32 68 87 l0 48 -25
-24 c-23 -24 -43 -29 -95 -25 -69 6 -113 68 -113 160 0 100 50 160 135 160 39
0 54 -5 73 -25z m235 -1 l0 -27 26 27 c36 36 105 37 137 2 l22 -24 28 24 c20
17 40 24 68 24 91 0 109 -35 109 -205 l0 -125 -35 0 -35 0 0 124 c0 118 -1
126 -22 140 -30 21 -54 20 -78 -4 -18 -18 -20 -33 -20 -140 l0 -120 -35 0 -35
0 0 124 c0 118 -1 126 -22 140 -30 21 -47 20 -75 -6 -22 -20 -23 -29 -23 -140
l0 -118 -35 0 -35 0 0 165 0 165 30 0 c26 0 30 -4 30 -26z m701 0 c28 -29 38
-82 39 -201 l0 -103 -35 0 c-29 0 -35 4 -35 22 l0 21 -25 -23 c-19 -18 -37
-24 -76 -24 -45 -1 -54 3 -80 32 -40 45 -40 91 2 126 17 14 34 26 37 27 114
18 137 25 140 42 10 50 -78 77 -118 37 -21 -21 -46 -25 -68 -12 -10 7 -8 15 9
36 30 38 54 46 127 43 47 -2 67 -8 83 -23z m4496 6 c40 -24 60 -61 64 -120 l4
-45 -118 -3 c-117 -3 -118 -3 -111 -25 19 -64 100 -91 144 -47 21 21 64 27 74
11 4 -5 -5 -23 -20 -40 -63 -75 -205 -57 -247 32 -21 43 -22 138 -3 175 16 30
53 66 76 75 35 13 106 6 137 -13z m744 -6 c28 -29 38 -82 39 -201 l0 -103 -35
0 c-29 0 -35 4 -35 22 l0 21 -25 -23 c-19 -18 -37 -24 -76 -24 -45 -1 -54 3
-80 32 -40 45 -40 91 2 126 17 14 34 26 37 27 114 18 137 25 140 42 10 50 -78
77 -118 37 -21 -21 -46 -25 -68 -12 -10 7 -8 15 9 36 30 38 54 46 127 43 47
-2 67 -8 83 -23z m478 12 c42 -22 51 -54 51 -191 l0 -125 -30 0 c-23 0 -30 4
-30 20 0 21 0 21 -27 1 -67 -48 -158 -28 -179 38 -24 74 12 114 121 134 62 11
70 15 73 37 7 48 -63 67 -111 30 -27 -21 -62 -26 -72 -10 -9 15 13 48 43 64
35 19 125 20 161 2z m201 -7 l0 -20 26 20 c30 23 88 28 128 10 44 -20 56 -64
56 -198 l0 -121 -35 0 -35 0 0 118 c0 64 -4 122 -8 128 -10 15 -47 34 -67 34
-9 0 -27 -11 -40 -25 -24 -23 -25 -30 -25 -140 l0 -115 -35 0 -35 0 0 165 0
165 35 0 c29 0 35 -4 35 -21z m510 6 c28 -14 60 -60 60 -85 0 -22 -53 -9 -80
20 -36 39 -72 39 -111 1 -25 -25 -29 -37 -29 -84 0 -45 5 -61 26 -86 36 -43
84 -43 116 -1 16 22 29 30 47 28 33 -4 36 -18 8 -59 -40 -60 -143 -73 -204
-26 -34 27 -63 92 -63 142 0 56 32 121 72 145 40 24 116 27 158 5z m190 -150
l0 -165 -30 0 -30 0 0 165 0 165 30 0 30 0 0 -165z m150 140 l0 -24 26 24 c37
35 111 35 151 1 28 -24 28 -25 31 -165 l4 -141 -31 0 -31 0 0 115 c0 110 -1
117 -25 140 -27 28 -42 30 -79 14 -35 -16 -46 -57 -46 -170 l0 -99 -30 0 -30
0 0 165 0 165 30 0 c25 0 30 -4 30 -25z m494 4 l26 -20 0 20 c0 17 6 21 35 21
l35 0 0 -182 c0 -166 -2 -186 -20 -216 -47 -76 -191 -84 -255 -13 -16 19 -17
24 -5 31 22 14 35 12 75 -11 26 -15 45 -20 67 -15 50 10 68 33 68 84 l0 45
-24 -22 c-30 -28 -104 -31 -142 -6 -48 31 -65 73 -62 150 3 76 29 128 72 145
40 16 102 11 130 -11z m3200 -11 c19 -18 37 -43 41 -55 10 -36 -40 -31 -75 7
-15 17 -37 30 -49 30 -70 0 -111 -68 -91 -155 17 -77 89 -100 140 -45 26 28
63 39 74 22 2 -4 -2 -22 -10 -40 -18 -44 -88 -76 -145 -67 -50 9 -104 54 -120
102 -18 56 -7 135 25 178 34 44 55 54 124 54 46 1 56 -3 86 -31z m326 17 c28
-14 60 -60 60 -85 0 -22 -53 -9 -80 20 -36 39 -72 39 -111 1 -25 -25 -29 -37
-29 -84 0 -45 5 -61 26 -86 36 -43 84 -43 116 -1 16 22 29 30 47 28 33 -4 36
-18 8 -59 -40 -60 -143 -73 -204 -26 -34 27 -63 92 -63 142 0 56 32 121 72
145 40 24 116 27 158 5z m346 -4 c38 -23 64 -76 64 -130 l0 -41 -115 0 c-74 0
-115 -4 -115 -10 0 -20 29 -68 45 -74 35 -13 85 -6 102 14 18 20 67 27 77 11
4 -5 -5 -23 -20 -40 -63 -75 -204 -57 -250 31 -23 44 -23 133 0 180 10 21 32
46 49 57 42 27 121 28 163 2z m204 -7 l0 -27 25 27 c32 34 108 37 149 5 103
-81 74 -277 -46 -309 -43 -12 -99 5 -117 37 -8 14 -10 -2 -11 -69 l0 -88 -30
0 c-26 0 -30 4 -31 28 -1 29 -1 362 0 400 1 18 7 22 31 22 26 0 30 -4 30 -26z
m760 4 l0 -21 23 21 c34 32 100 30 132 -3 l25 -24 25 24 c19 20 34 25 74 25
43 0 53 -4 75 -31 25 -30 26 -35 26 -165 l0 -134 -30 0 -30 0 0 110 c0 119
-11 157 -46 166 -23 6 -63 -10 -76 -30 -4 -6 -8 -64 -8 -128 l0 -118 -35 0
-34 0 -3 127 c-3 127 -3 127 -30 142 -25 14 -29 14 -55 -5 -28 -21 -28 -23
-31 -143 l-3 -121 -34 0 -35 0 0 165 0 165 35 0 c29 0 35 -4 35 -22z m690 0
c52 -36 72 -82 68 -155 -6 -98 -61 -157 -146 -157 -96 0 -155 62 -156 163 -1
108 54 171 150 171 37 0 60 -6 84 -22z m381 -16 c39 -44 39 -72 -1 -72 -16 0
-30 5 -30 10 0 21 -41 50 -70 50 -64 0 -105 -82 -81 -161 22 -73 92 -92 139
-39 31 35 72 41 72 11 0 -32 -48 -80 -91 -91 -43 -12 -98 -2 -135 24 -33 23
-54 78 -54 141 0 60 15 98 52 131 33 30 46 34 112 30 52 -2 62 -6 87 -34z
m-15758 -43 c38 -41 37 -90 -2 -130 -38 -38 -87 -39 -129 -4 -55 46 -44 132
20 160 43 18 76 10 111 -26z m5956 12 c50 -35 52 -103 4 -147 -52 -48 -141
-19 -159 51 -10 39 19 93 59 110 35 16 60 12 96 -14z m6037 7 c51 -24 59 -105
15 -149 -39 -38 -87 -39 -130 -3 -25 21 -31 33 -31 66 0 51 14 76 53 93 32 14
54 13 93 -7z m-9752 -680 c22 -35 -27 -74 -59 -48 -20 17 -19 47 3 59 23 14
42 10 56 -11z m12779 15 c3 -5 1 -18 -4 -30 -6 -17 -16 -23 -38 -23 -29 0 -41
-14 -41 -51 0 -15 7 -19 35 -19 31 0 35 -3 35 -25 0 -22 -4 -25 -35 -25 l-35
0 0 -140 0 -140 -35 0 -35 0 0 140 0 140 -25 0 c-20 0 -25 5 -25 25 0 20 5 25
24 25 20 0 25 7 31 37 9 50 22 72 48 83 27 11 94 13 100 3z m-13226 -30 c54
-25 75 -66 70 -136 -3 -46 -9 -63 -31 -86 -30 -32 -94 -51 -166 -51 l-40 0 0
-75 0 -75 -35 0 -35 0 0 220 0 220 101 0 c74 0 111 -5 136 -17z m6833 -203 l0
-220 -35 0 c-29 0 -35 4 -35 22 0 21 0 21 -26 -3 -20 -18 -36 -24 -70 -23 -84
2 -134 65 -134 167 0 106 39 158 124 165 48 4 57 1 80 -21 l26 -26 0 79 0 80
35 0 35 0 0 -220z m-6512 82 c3 -30 1 -32 -29 -32 -20 0 -42 -9 -56 -22 -21
-20 -23 -29 -23 -135 l0 -113 -32 0 -33 0 0 165 0 165 33 0 c26 0 32 -4 32
-22 l0 -21 23 20 c22 21 52 33 72 29 6 -2 11 -17 13 -34z m11960 0 c3 -31 2
-32 -32 -32 -65 0 -76 -22 -76 -155 l0 -115 -35 0 -35 0 0 165 0 165 35 0 c28
0 35 -4 35 -20 0 -19 1 -19 20 -2 21 18 58 31 75 28 6 -2 11 -17 13 -34z
m-11838 -137 l0 -165 -30 0 -30 0 0 165 0 165 30 0 30 0 0 -165z m300 150 c33
-17 60 -52 60 -77 0 -30 -48 -22 -80 12 -65 70 -148 7 -137 -104 5 -58 39 -96
86 -96 27 0 71 31 71 50 0 6 14 10 30 10 39 0 40 -26 4 -69 -33 -40 -90 -56
-146 -40 -76 20 -111 70 -112 159 -1 105 55 170 147 170 26 0 61 -7 77 -15z
m347 -5 c40 -24 60 -61 64 -120 l4 -45 -118 -3 c-117 -3 -118 -3 -111 -25 19
-64 100 -91 144 -47 21 21 64 27 74 11 4 -5 -5 -23 -20 -40 -63 -75 -205 -57
-247 32 -21 43 -22 138 -3 175 16 30 53 66 76 75 35 13 106 6 137 -13z m4623
-2 l0 -21 23 21 c34 32 100 30 132 -3 l25 -24 25 24 c19 20 34 25 74 25 43 0
53 -4 75 -31 25 -30 26 -35 26 -165 l0 -134 -30 0 -30 0 0 110 c0 119 -11 157
-46 166 -23 6 -63 -10 -76 -30 -4 -6 -8 -64 -8 -128 l0 -118 -35 0 -34 0 -3
127 c-3 127 -3 127 -30 142 -25 14 -29 14 -55 -5 -28 -21 -28 -23 -31 -143
l-3 -121 -34 0 -35 0 0 165 0 165 35 0 c29 0 35 -4 35 -22z m690 0 c52 -36 72
-82 68 -155 -6 -98 -61 -157 -146 -157 -96 0 -155 62 -156 163 -1 108 54 171
150 171 37 0 60 -6 84 -22z m737 2 c40 -24 60 -61 64 -120 l4 -45 -118 -3
c-117 -3 -118 -3 -111 -25 19 -64 100 -91 144 -47 21 21 64 27 74 11 4 -5 -5
-23 -20 -40 -63 -75 -205 -57 -247 32 -21 43 -22 138 -3 175 16 30 53 66 76
75 35 13 106 6 137 -13z m4653 -6 l0 -26 31 26 c60 51 156 27 190 -47 38 -85
18 -194 -44 -241 -39 -29 -109 -27 -141 3 l-26 24 0 -81 0 -82 -35 0 -35 0 0
225 0 225 30 0 c26 0 30 -4 30 -26z m755 6 c93 -58 90 -239 -5 -294 -21 -12
-52 -20 -82 -20 -102 0 -166 98 -144 218 8 39 48 93 80 106 40 16 117 11 151
-10z m365 -2 c52 -36 72 -82 68 -155 -6 -98 -61 -157 -146 -157 -96 0 -155 62
-156 163 -1 108 54 171 150 171 37 0 60 -6 84 -22z m-21270 -279 c57 -13 104
-49 132 -102 18 -34 23 -58 23 -128 0 -78 -3 -90 -30 -134 -87 -140 -289 -129
-356 20 -13 27 -19 64 -19 115 0 51 6 88 19 115 21 47 80 102 119 111 15 3 32
7 37 9 17 6 28 5 75 -6z m1866 0 c48 -12 104 -65 104 -99 0 -30 -62 -28 -75 3
-22 49 -140 54 -166 6 -26 -50 8 -84 106 -108 124 -31 177 -114 125 -198 -28
-47 -73 -67 -150 -67 -77 0 -122 20 -150 67 -31 49 -26 67 15 67 22 0 35 -5
35 -13 0 -8 11 -24 24 -36 50 -47 166 -21 174 38 5 34 -24 59 -96 81 -94 29
-131 49 -147 81 -40 76 6 157 100 180 44 10 52 10 101 -2z m-1316 -86 c1 -65
3 -83 11 -70 26 44 109 60 159 30 45 -26 54 -56 58 -200 l4 -133 -36 0 -36 0
0 119 c0 105 -2 121 -21 145 -14 18 -30 26 -50 26 -71 0 -89 -37 -89 -186 l0
-104 -35 0 -35 0 0 230 0 230 35 0 35 0 0 -87z m17283 12 c57 -43 87 -72 87
-85 0 -23 -162 -150 -191 -150 -24 0 -39 29 -39 74 l0 36 -420 0 -420 0 0 40
0 40 420 0 420 0 0 39 c0 40 20 71 44 71 7 0 52 -29 99 -65z m-17503 5 c0 -39
1 -40 35 -40 32 0 35 -2 35 -30 0 -28 -3 -30 -35 -30 l-35 0 0 -96 c0 -107 9
-134 45 -134 14 0 25 -3 25 -7 0 -5 3 -18 6 -30 6 -21 3 -23 -40 -23 -36 0
-52 6 -71 25 -24 23 -25 30 -25 144 l0 120 -27 3 c-22 2 -28 8 -28 28 0 20 6
26 28 28 24 3 27 7 27 43 0 37 2 39 30 39 28 0 30 -2 30 -40z m1820 0 c0 -39
1 -40 35 -40 32 0 35 -2 35 -30 0 -28 -3 -30 -35 -30 l-36 0 3 -112 3 -113 30
-5 c24 -4 31 -11 33 -33 3 -25 1 -27 -37 -27 -86 0 -101 26 -101 180 l0 110
-25 0 c-21 0 -25 5 -25 30 0 25 4 30 25 30 23 0 25 4 25 40 0 39 1 40 35 40
34 0 35 -1 35 -40z m830 0 c0 -39 1 -40 35 -40 32 0 35 -2 35 -30 0 -28 -3
-30 -35 -30 l-35 0 0 -96 c0 -107 9 -134 45 -134 14 0 25 -3 25 -7 0 -5 3 -18
6 -30 6 -21 3 -23 -40 -23 -36 0 -52 6 -71 25 -24 23 -25 30 -25 144 l0 120
-27 3 c-22 2 -28 8 -28 28 0 20 6 26 28 28 24 3 27 7 27 43 0 37 2 39 30 39
28 0 30 -2 30 -40z m-12387 4 c28 -15 67 -68 67 -91 0 -8 -13 -13 -33 -13 -26
0 -37 6 -47 25 -35 66 -170 46 -170 -25 0 -37 23 -55 108 -80 82 -24 140 -69
143 -110 3 -53 -2 -70 -31 -104 -74 -84 -243 -67 -290 28 -11 23 -20 45 -20
49 0 4 16 7 35 7 28 0 37 -5 45 -24 12 -32 42 -48 95 -48 74 -2 116 43 91 94
-9 17 -35 31 -103 53 -102 34 -120 46 -139 91 -26 62 21 141 96 163 42 12 114
5 153 -15z m5313 -5 c28 -17 44 -40 58 -81 9 -30 -58 -24 -78 7 -18 27 -73 46
-108 38 -28 -7 -68 -42 -68 -59 0 -30 47 -63 120 -84 100 -30 140 -68 140
-135 0 -40 -5 -52 -33 -80 -39 -39 -104 -59 -165 -51 -78 11 -122 45 -137 109
-7 26 -5 27 28 27 27 0 37 -5 42 -20 12 -37 54 -54 126 -51 36 1 69 36 69 71
0 34 -22 48 -112 75 -108 31 -156 83 -143 153 18 94 165 140 261 81z m-7336
-9 l0 -30 -110 0 -110 0 0 -70 0 -70 105 0 105 0 0 -30 0 -30 -105 0 -105 0 0
-70 0 -70 115 0 115 0 0 -30 0 -30 -150 0 -150 0 0 230 0 230 145 0 145 0 0
-30z m160 -102 l0 -133 73 78 c68 75 74 79 110 75 l37 -3 -68 -75 -69 -75 74
-97 74 -98 -43 0 c-42 1 -44 3 -97 75 -30 41 -58 75 -61 75 -19 0 -30 -31 -30
-87 l0 -63 -35 0 -35 0 0 230 0 230 35 0 35 0 0 -132z m730 46 l0 -85 24 28
c21 24 32 28 78 28 62 0 98 -22 124 -75 53 -108 9 -244 -86 -270 -49 -13 -82
-5 -115 27 l-25 26 0 -27 c0 -23 -4 -26 -35 -26 l-35 0 0 230 0 230 35 0 35 0
0 -86z m4618 -71 c85 -251 68 -247 142 -30 l63 187 40 0 c21 0 37 -4 35 -8 -1
-5 -39 -109 -83 -230 l-80 -222 -41 0 -41 0 -78 218 c-43 119 -80 223 -83 230
-3 8 8 12 34 12 l39 0 53 -157z m11691 100 c83 -62 91 -70 91 -95 0 -18 -163
-148 -185 -148 -22 0 -35 25 -35 67 l0 43 -425 0 -425 0 0 40 0 40 425 0 425
0 0 48 c0 27 3 52 7 55 17 17 52 3 122 -50z m6108 -3 c81 -61 97 -79 87 -102
-7 -18 -173 -138 -190 -138 -19 0 -34 33 -34 74 l0 36 -420 0 -420 0 0 40 0
40 420 0 420 0 0 43 c0 85 30 87 137 7z m-21047 -10 c0 -39 1 -40 35 -40 32 0
35 -2 35 -30 0 -28 -3 -30 -35 -30 l-35 0 0 -96 c0 -107 9 -134 45 -134 14 0
25 -3 25 -7 0 -5 3 -18 6 -30 6 -21 3 -23 -40 -23 -36 0 -52 6 -71 25 -24 23
-25 30 -25 144 l0 120 -27 3 c-22 2 -28 8 -28 28 0 20 6 26 28 28 24 3 27 7
27 43 0 37 2 39 30 39 28 0 30 -2 30 -40z m840 0 c0 -39 1 -40 35 -40 32 0 35
-2 35 -30 0 -28 -3 -30 -35 -30 l-36 0 3 -112 3 -113 30 -5 c24 -4 31 -11 33
-33 3 -25 1 -27 -37 -27 -86 0 -101 26 -101 180 l0 110 -25 0 c-21 0 -25 5
-25 30 0 25 4 30 25 30 23 0 25 4 25 40 0 39 1 40 35 40 34 0 35 -1 35 -40z
m4470 0 c0 -39 1 -40 35 -40 32 0 35 -2 35 -30 0 -28 -3 -30 -35 -30 l-35 0 0
-103 c0 -109 6 -127 47 -127 13 0 23 -6 23 -14 0 -8 3 -21 6 -30 5 -13 -2 -16
-43 -16 -40 0 -54 5 -74 26 -22 24 -24 35 -27 145 l-4 119 -25 0 c-21 0 -24 4
-21 28 2 19 9 28 26 30 18 3 22 10 22 43 0 38 1 39 35 39 34 0 35 -1 35 -40z
m840 1 c0 -37 2 -40 33 -43 27 -2 33 -8 35 -30 3 -26 1 -28 -33 -28 l-36 0 3
-112 c3 -112 3 -113 28 -117 27 -3 40 -17 40 -43 0 -30 -84 -25 -115 7 -24 23
-25 30 -25 145 l0 120 -25 0 c-21 0 -25 5 -25 30 0 25 4 30 25 30 23 0 25 4
25 40 0 39 1 40 35 40 34 0 35 -1 35 -39z m4118 -18 c37 -27 62 -80 62 -130
l0 -43 -120 0 c-115 0 -120 -1 -120 -21 0 -11 13 -34 29 -50 38 -37 91 -40
125 -6 18 18 32 23 55 19 30 -4 30 -4 15 -34 -34 -65 -146 -84 -222 -38 -82
50 -95 204 -24 284 43 48 147 58 200 19z m202 1 l0 -26 31 26 c18 15 43 26 60
26 26 0 29 -4 29 -30 0 -26 -3 -30 -29 -30 -15 0 -40 -9 -55 -21 -26 -20 -26
-22 -26 -145 l0 -124 -35 0 -35 0 0 175 0 175 30 0 c26 0 30 -4 30 -26z m1061
-4 c4 -14 7 -19 8 -13 1 17 54 43 86 43 21 0 25 -5 25 -30 0 -26 -3 -30 -29
-30 -17 0 -42 -11 -60 -26 l-31 -26 0 -119 0 -119 -35 0 -35 0 0 168 c0 93 3
172 7 176 16 16 57 1 64 -24z m373 16 c60 -25 66 -44 66 -198 l0 -138 -30 0
c-24 0 -30 4 -30 21 l0 20 -25 -20 c-81 -63 -195 -20 -195 74 0 66 42 96 152
109 61 8 73 20 54 57 -16 34 -86 39 -115 10 -22 -22 -47 -26 -70 -12 -12 8
-12 13 1 33 34 52 124 73 192 44z m624 -13 c37 -27 62 -80 62 -130 l0 -43
-120 0 c-115 0 -120 -1 -120 -21 0 -11 13 -34 29 -50 38 -37 91 -40 125 -6 18
18 32 23 55 19 30 -4 30 -4 15 -34 -34 -65 -146 -84 -222 -38 -82 50 -95 204
-24 284 43 48 147 58 200 19z m315 16 c12 -6 30 -21 39 -33 17 -21 18 -21 18
12 0 31 2 33 33 30 l32 -3 3 -160 c2 -88 0 -180 -3 -204 -13 -86 -100 -135
-200 -112 -79 18 -124 73 -70 87 17 4 33 -1 51 -15 33 -26 94 -28 124 -3 17
14 24 32 28 73 l4 54 -30 -28 c-59 -56 -164 -31 -202 48 -68 140 52 316 173
254z m304 -124 c23 -71 43 -132 43 -135 1 -3 21 57 46 133 l45 137 34 0 c19 0
35 -4 35 -8 0 -4 -34 -100 -75 -213 -84 -231 -103 -259 -176 -259 -38 0 -40 2
-37 27 2 22 9 29 32 33 20 3 36 15 47 35 16 30 16 32 -42 190 -32 88 -62 168
-65 178 -5 16 -1 18 32 15 l38 -3 43 -130z m-14897 -31 c0 -144 12 -174 73
-174 16 0 38 10 52 25 24 23 25 30 25 145 l0 120 35 0 35 0 0 -175 0 -175 -35
0 c-31 0 -35 3 -35 26 l0 26 -31 -26 c-36 -31 -101 -35 -138 -10 -40 28 -51
73 -51 202 0 65 3 122 7 125 3 4 19 7 35 7 l28 0 0 -116z m938 89 c49 -36 66
-70 70 -136 6 -100 -34 -165 -115 -186 -78 -21 -152 12 -184 83 -43 95 -7 214
76 253 40 18 120 11 153 -14z m1022 1 l0 -26 31 26 c18 15 43 26 60 26 26 0
29 -4 29 -30 0 -26 -3 -30 -29 -30 -15 0 -40 -9 -55 -21 -26 -20 -26 -22 -26
-145 l0 -124 -35 0 -35 0 0 175 0 175 30 0 c26 0 30 -4 30 -26z m385 12 c55
-23 65 -56 65 -206 l0 -130 -35 0 c-29 0 -35 4 -35 22 0 21 0 21 -26 -3 -34
-32 -110 -34 -151 -3 -37 28 -53 86 -32 122 19 34 51 50 136 65 57 10 68 16
71 33 7 52 -80 74 -125 32 -19 -17 -28 -19 -54 -12 l-31 9 23 29 c42 53 124
71 194 42z m605 -8 c49 -34 70 -67 77 -126 l6 -52 -127 0 c-69 0 -126 -2 -126
-5 0 -3 7 -21 15 -40 23 -58 93 -72 142 -31 20 17 36 23 56 19 33 -7 34 -14 1
-52 -66 -79 -210 -56 -260 42 -21 40 -21 135 1 181 37 77 147 110 215 64z
m349 -3 l30 -26 3 23 c2 18 10 24 36 26 l32 3 0 -196 c0 -156 -3 -202 -15
-225 -39 -76 -189 -90 -259 -25 -33 30 -33 41 0 49 17 5 34 0 54 -14 38 -27
103 -27 130 0 15 15 20 33 20 72 0 50 -1 51 -15 30 -30 -42 -133 -45 -179 -4
-48 43 -63 161 -29 230 38 78 133 106 192 57z m282 -112 l46 -138 45 135 c38
116 48 135 67 138 53 8 52 1 -23 -205 -40 -109 -78 -209 -85 -221 -15 -28 -61
-52 -100 -52 -35 0 -42 8 -34 38 4 16 13 22 34 22 23 0 33 7 45 33 15 31 14
36 -45 200 -34 93 -61 172 -61 178 0 5 15 9 33 9 l33 0 45 -137z m1957 110
c38 -28 60 -71 64 -123 l3 -45 -124 -3 -123 -3 6 -27 c16 -68 104 -95 152 -47
19 19 31 23 54 18 38 -7 38 -17 -3 -58 -58 -58 -165 -56 -225 5 -35 35 -57
113 -47 168 9 51 50 111 88 128 42 19 121 12 155 -13z m371 -19 l35 -38 -32
-10 c-27 -7 -34 -6 -50 14 -32 40 -122 25 -122 -21 0 -22 18 -33 94 -52 76
-20 106 -48 106 -99 0 -28 -7 -46 -24 -63 -50 -50 -161 -55 -216 -9 -41 35
-44 61 -9 68 22 4 34 0 53 -19 45 -45 132 -27 124 25 -2 21 -13 27 -68 42
-110 30 -148 77 -116 145 21 45 66 64 135 60 48 -4 58 -8 90 -43z m179 -84 c3
-139 12 -160 66 -160 67 1 86 43 86 192 l0 98 30 0 30 0 0 -175 0 -175 -30 0
c-26 0 -30 3 -30 29 l0 29 -29 -29 c-25 -24 -38 -29 -78 -29 -51 0 -82 18
-102 57 -6 13 -11 77 -11 158 l0 136 33 -3 32 -3 3 -125z m1182 101 l0 -29 29
29 c20 19 40 29 60 29 28 0 31 -3 31 -33 0 -31 -2 -33 -30 -29 -23 3 -36 -3
-60 -26 -30 -30 -30 -31 -30 -146 l0 -116 -35 0 -35 0 0 168 c0 93 3 172 7
175 3 4 19 7 35 7 24 0 28 -4 28 -29z m383 13 c55 -26 61 -45 65 -196 l4 -138
-36 0 c-29 0 -36 4 -36 20 0 18 -2 18 -37 -6 -109 -74 -245 55 -155 146 23 22
44 30 106 41 85 13 98 25 72 64 -22 33 -86 35 -117 4 -17 -17 -27 -20 -51 -13
l-30 9 23 29 c42 54 126 71 192 40z m615 -11 c38 -28 60 -71 64 -123 l3 -45
-124 -3 -123 -3 6 -27 c16 -68 104 -95 152 -47 19 19 31 23 54 18 38 -7 38
-17 -3 -58 -58 -58 -165 -56 -225 5 -35 35 -57 113 -47 168 9 51 50 111 88
128 42 19 121 12 155 -13z m341 2 l30 -26 3 23 c2 18 10 24 36 26 l32 3 0
-196 c0 -156 -3 -202 -15 -225 -39 -76 -189 -90 -259 -25 -33 30 -33 41 0 49
17 5 34 0 54 -14 38 -27 103 -27 130 0 15 15 20 33 20 72 0 50 -1 51 -15 30
-30 -42 -133 -45 -179 -4 -48 43 -63 161 -29 230 38 78 133 106 192 57z m280
-115 l44 -135 46 135 c46 134 46 135 79 138 20 2 32 -1 32 -9 0 -14 -125 -361
-147 -407 -9 -18 -28 -39 -44 -47 -37 -20 -99 -20 -99 -1 0 29 13 46 34 46 29
0 43 11 55 41 8 22 -1 54 -50 189 -32 89 -59 168 -59 176 0 11 9 14 33 12 32
-3 32 -3 76 -138z m11175 -132 c23 -38 -35 -78 -61 -42 -17 23 -16 29 3 49 20
19 43 16 58 -7z m300 0 c23 -38 -35 -78 -61 -42 -17 23 -16 29 3 49 20 19 43
16 58 -7z m6510 0 c22 -35 -27 -74 -59 -48 -20 17 -19 47 3 59 23 14 42 10 56
-11z m-8241 -183 c33 -99 63 -173 65 -165 3 8 31 89 63 180 l57 165 37 3 c21
2 36 -1 34 -6 -2 -6 -38 -105 -79 -221 l-75 -211 -40 0 -40 0 -74 208 c-41
114 -76 213 -79 220 -3 10 5 13 33 10 l38 -3 60 -180z m717 -35 l0 -220 -35 0
-35 0 0 220 0 220 35 0 35 0 0 -220z m870 0 l0 -220 -35 0 -35 0 0 220 0 220
35 0 35 0 0 -220z m3640 60 l0 -160 28 -30 c46 -52 144 -42 171 17 7 14 11 87
11 178 l0 155 36 0 35 0 -3 -174 c-3 -194 -8 -209 -78 -250 -52 -30 -147 -27
-198 6 -64 43 -72 72 -72 257 l0 161 35 0 35 0 0 -160z m3390 -60 l0 -220 -35
0 c-31 0 -35 3 -35 28 -1 24 -2 25 -11 9 -18 -32 -74 -49 -118 -37 -68 18
-105 76 -105 165 1 105 50 165 136 165 39 0 54 -5 73 -25 l25 -24 0 79 0 80
35 0 35 0 0 -220z m3880 190 l0 -30 -100 0 -100 0 0 -65 0 -65 90 0 90 0 0
-30 0 -30 -90 0 -90 0 0 -95 0 -95 -35 0 -35 0 0 220 0 220 135 0 135 0 0 -30z
m-11270 -40 c0 -39 1 -40 35 -40 31 0 35 -3 35 -25 0 -22 -4 -25 -35 -25 l-35
0 0 -99 c0 -106 10 -131 51 -131 14 0 19 -7 19 -25 0 -23 -4 -25 -40 -25 -30
0 -47 7 -65 25 -24 23 -25 30 -25 140 l0 115 -25 0 c-20 0 -25 5 -25 25 0 20
5 25 25 25 23 0 25 4 25 40 0 38 2 40 30 40 28 0 30 -2 30 -40z m680 0 c0 -39
1 -40 35 -40 31 0 35 -3 35 -25 0 -22 -4 -25 -35 -25 l-35 0 0 -105 c0 -94 2
-105 20 -115 11 -6 24 -9 29 -6 8 5 20 -24 21 -46 0 -10 -72 -11 -95 -2 -33
13 -45 59 -45 169 l0 105 -25 0 c-20 0 -25 5 -25 25 0 20 5 25 25 25 23 0 25
4 25 40 0 39 1 40 35 40 34 0 35 -1 35 -40z m11098 -2 c3 -35 6 -38 33 -38 24
0 29 -4 29 -25 0 -21 -5 -25 -30 -25 l-30 0 0 -105 0 -105 28 -12 c15 -7 28
-12 28 -13 1 0 5 -10 8 -22 7 -22 4 -23 -39 -23 -35 0 -51 6 -70 25 -24 23
-25 30 -25 140 l0 115 -25 0 c-20 0 -25 5 -25 25 0 20 5 25 25 25 23 0 25 4
25 41 0 39 1 40 33 37 29 -3 32 -6 35 -40z m-6550 -66 c3 -31 2 -32 -34 -32
-66 0 -74 -16 -74 -152 l0 -118 -35 0 -35 0 0 165 0 165 30 0 c26 0 30 -4 30
-27 l0 -27 15 22 c15 20 68 43 90 38 6 -1 11 -17 13 -34z m1430 0 c3 -31 2
-32 -32 -32 -65 0 -76 -22 -76 -155 l0 -115 -35 0 -35 0 0 165 0 165 35 0 c28
0 35 -4 35 -20 0 -19 1 -19 20 -2 21 18 58 31 75 28 6 -2 11 -17 13 -34z m230
0 c3 -30 1 -32 -29 -32 -20 0 -42 -9 -56 -22 -21 -20 -23 -29 -23 -135 l0
-113 -30 0 -30 0 -1 63 c-1 76 -1 249 0 260 1 4 15 7 31 7 24 0 30 -4 30 -22
l0 -21 23 20 c22 21 52 33 72 29 6 -2 11 -17 13 -34z m5560 0 c3 -31 2 -32
-32 -32 -65 0 -76 -22 -76 -155 l0 -115 -35 0 -35 0 0 165 0 165 35 0 c28 0
35 -4 35 -20 0 -19 1 -19 20 -2 21 18 58 31 75 28 6 -2 11 -17 13 -34z
m-13170 8 c40 -24 72 -89 72 -145 0 -45 -28 -112 -56 -137 -47 -41 -151 -42
-196 -1 -30 26 -58 92 -58 138 0 22 9 59 20 82 25 55 70 83 135 83 33 0 62 -7
83 -20z m501 6 c42 -22 51 -54 51 -191 l0 -125 -30 0 c-23 0 -30 4 -30 20 0
21 0 21 -27 1 -67 -48 -158 -28 -179 38 -24 74 12 114 121 134 62 11 70 15 73
37 7 48 -63 67 -111 30 -27 -21 -62 -26 -72 -10 -9 15 13 48 43 64 35 19 125
20 161 2z m431 -151 l0 -165 -35 0 -35 0 0 165 0 165 35 0 35 0 0 -165z m300
0 l0 -165 -35 0 -35 0 0 165 0 165 35 0 35 0 0 -165z m391 38 l42 -128 42 125
42 125 36 3 37 3 -24 -63 c-13 -35 -45 -124 -72 -198 -58 -161 -80 -190 -147
-190 -45 0 -45 0 -38 28 5 15 14 26 21 24 23 -5 47 8 59 34 10 23 5 45 -43
178 -30 83 -58 159 -61 169 -6 14 -1 17 28 17 l35 0 43 -127z m3668 113 c15
-8 32 -26 39 -40 10 -24 9 -26 -14 -32 -18 -5 -31 0 -48 15 -28 26 -77 27
-100 2 -24 -26 -10 -49 38 -61 115 -30 140 -49 140 -105 0 -72 -83 -117 -174
-95 -51 12 -73 30 -84 68 -7 20 -4 22 26 22 22 0 37 -7 46 -20 25 -40 129 -18
120 26 -2 14 -24 26 -81 45 -83 28 -106 48 -107 92 0 38 15 64 48 81 35 19
115 20 151 2z m342 -3 c37 -22 71 -91 67 -135 l-3 -33 -112 -3 c-106 -2 -113
-4 -113 -23 0 -11 11 -31 25 -44 31 -32 93 -34 120 -5 20 22 75 28 75 7 0 -25
-31 -56 -74 -72 -85 -33 -177 10 -205 94 -26 79 2 175 61 211 42 25 119 27
159 3z m757 -3 c40 -24 72 -89 72 -145 0 -45 -28 -112 -56 -137 -47 -41 -151
-42 -196 -1 -30 26 -58 92 -58 138 0 22 9 59 20 82 25 55 70 83 135 83 33 0
62 -7 83 -20z m217 -110 l42 -125 42 128 43 127 34 0 c19 0 34 -1 34 -2 0 -2
-27 -75 -58 -163 l-58 -160 -36 -3 -35 -3 -38 103 c-21 57 -48 131 -61 166
l-24 63 37 -3 36 -3 42 -125z m461 111 c38 -23 64 -76 64 -130 l0 -41 -115 0
c-74 0 -115 -4 -115 -10 0 -20 29 -68 45 -74 35 -13 85 -6 102 14 18 20 67 27
77 11 4 -5 -5 -23 -20 -40 -63 -75 -204 -57 -250 31 -23 44 -23 133 0 180 10
21 32 46 49 57 42 27 121 28 163 2z m664 -146 l0 -165 -30 0 -30 0 0 165 0
165 30 0 30 0 0 -165z m686 146 c38 -23 64 -76 64 -130 l0 -41 -115 0 c-74 0
-115 -4 -115 -10 0 -20 29 -68 45 -74 35 -13 85 -6 102 14 18 20 67 27 77 11
4 -5 -5 -23 -20 -40 -63 -75 -204 -57 -250 31 -23 44 -23 133 0 180 10 21 32
46 49 57 42 27 121 28 163 2z m3704 -100 c0 -135 7 -151 65 -151 24 0 39 7 54
26 18 23 21 41 21 135 l0 109 30 0 30 0 0 -165 0 -165 -30 0 c-26 0 -30 4 -30
27 l0 27 -28 -27 c-54 -52 -146 -31 -173 40 -5 13 -9 78 -9 144 l0 119 35 0
35 0 0 -119z m580 2 c0 -133 9 -153 67 -153 62 0 73 24 73 155 l0 115 35 0 35
0 0 -165 0 -165 -35 0 c-30 0 -35 3 -35 25 l0 24 -25 -24 c-18 -19 -35 -25
-67 -25 -92 0 -118 48 -118 215 l0 115 35 0 35 0 0 -117z m750 80 c28 -29 39
-49 44 -85 4 -27 4 -52 1 -58 -4 -6 -54 -10 -119 -10 l-113 0 5 -25 c11 -59
95 -84 146 -44 26 21 67 23 73 3 6 -19 -44 -62 -86 -74 -82 -22 -167 21 -192
97 -18 56 -7 135 25 178 34 44 55 54 125 54 49 1 57 -2 91 -36z m-15106 -44
c36 -43 35 -91 -3 -130 -39 -39 -97 -40 -134 -4 -66 66 -24 164 70 165 34 0
46 -5 67 -31z m5959 11 c34 -27 44 -78 23 -118 -55 -107 -222 -32 -176 79 7
16 22 36 34 44 30 22 89 19 119 -5z m6051 -11 c36 -43 35 -91 -3 -130 -39 -38
-87 -39 -130 -3 -42 35 -44 98 -5 138 40 39 103 37 138 -5z m-13247 -974 c-4
-511 -12 -1994 -17 -3295 -6 -1301 -13 -2542 -16 -2757 l-6 -393 -36 0 -35 0
6 1103 c4 606 12 2267 19 3690 l12 2588 39 -3 40 -2 -6 -931z m3093 285 l0
-30 -100 0 -100 0 0 -65 0 -65 90 0 90 0 0 -30 0 -30 -90 0 -90 0 0 -95 0 -95
-35 0 -35 0 0 220 0 220 135 0 135 0 0 -30z m1050 -190 l0 -220 -30 0 c-26 0
-30 4 -30 27 l0 27 -31 -30 c-25 -23 -39 -29 -74 -28 -24 0 -56 9 -70 18 -58
38 -82 154 -49 236 32 79 139 108 196 53 l28 -27 0 82 0 82 30 0 30 0 0 -220z
m10210 98 l0 -122 68 67 c55 55 73 67 100 67 17 0 32 -4 32 -8 0 -4 -27 -34
-60 -67 -33 -33 -60 -62 -60 -66 0 -3 29 -45 65 -92 36 -48 65 -89 65 -92 0
-3 -17 -5 -37 -5 -36 1 -42 6 -92 75 -65 90 -81 87 -81 -11 l0 -64 -35 0 -35
0 0 220 0 220 35 0 35 0 0 -122z m340 -37 c0 -144 2 -161 20 -184 42 -54 142
-53 178 1 14 21 18 55 20 184 l4 158 29 0 29 0 0 -169 c0 -158 -1 -170 -23
-201 -33 -50 -82 -75 -147 -74 -70 0 -123 25 -152 73 -21 33 -23 50 -26 204
l-4 167 36 0 36 0 0 -159z m1980 -61 l0 -220 -30 0 c-26 0 -30 4 -30 27 l0 27
-31 -30 c-25 -23 -39 -29 -74 -28 -56 1 -92 25 -116 77 -38 85 -13 209 50 241
49 26 110 21 143 -11 l28 -27 0 82 0 82 30 0 30 0 0 -220z m-682 82 c3 -31 2
-32 -34 -32 -66 0 -74 -16 -74 -152 l0 -118 -35 0 -35 0 0 165 0 165 30 0 c26
0 30 -4 30 -27 l0 -27 15 22 c15 20 68 43 90 38 6 -1 11 -17 13 -34z m-12608
-10 c29 -29 40 -49 45 -84 4 -26 4 -51 0 -57 -4 -7 -50 -11 -119 -11 l-113 0
5 -25 c11 -59 95 -84 146 -44 26 21 67 23 73 3 6 -19 -44 -62 -85 -74 -82 -22
-168 22 -193 98 -18 55 -7 135 25 177 34 44 55 54 125 54 49 1 57 -2 91 -37z
m336 19 c38 -23 64 -76 64 -130 l0 -41 -115 0 c-74 0 -115 -4 -115 -10 0 -20
29 -68 45 -74 35 -13 85 -6 102 14 18 20 67 27 77 11 4 -5 -5 -23 -20 -40 -63
-75 -204 -57 -250 31 -23 44 -23 133 0 180 10 21 32 46 49 57 42 27 121 28
163 2z m10484 -5 c0 -15 -33 -67 -85 -135 l-85 -110 87 -3 c88 -3 88 -3 91
-30 l3 -28 -135 0 c-132 0 -136 1 -136 21 0 12 38 70 85 130 47 59 85 110 85
113 0 3 -36 6 -80 6 l-80 0 0 30 0 30 125 0 125 0 0 -24z m930 -1 l0 -24 26
26 c23 22 32 25 80 21 86 -7 124 -57 124 -165 0 -102 -50 -165 -134 -167 -34
-1 -50 5 -70 23 l-26 24 0 -81 0 -82 -35 0 -35 0 0 225 0 225 35 0 c30 0 35
-3 35 -25z m505 0 l25 -24 0 24 c0 22 5 25 35 25 l35 0 -1 -172 c0 -189 -8
-229 -51 -261 -54 -40 -175 -31 -218 16 -26 27 -25 35 3 42 15 4 37 -2 61 -16
26 -15 45 -20 68 -15 51 10 68 32 68 87 l0 48 -25 -24 c-23 -24 -43 -29 -95
-25 -69 6 -113 68 -113 160 0 100 50 160 135 160 39 0 54 -5 73 -25z m614 11
c42 -22 51 -54 51 -191 l0 -125 -30 0 c-23 0 -30 4 -30 20 0 21 0 21 -27 1
-67 -48 -158 -28 -179 38 -24 74 12 114 121 134 62 11 70 15 73 37 7 48 -63
67 -111 30 -27 -21 -62 -26 -72 -10 -9 15 13 48 43 64 35 19 125 20 161 2z
m751 -23 c28 -29 39 -49 44 -85 4 -27 4 -53 1 -59 -4 -6 -32 -10 -64 -9 -31 1
-81 1 -112 1 -55 -1 -56 -2 -51 -26 11 -59 95 -84 146 -44 26 21 67 23 73 3 6
-19 -44 -62 -85 -74 -82 -22 -168 22 -193 98 -18 55 -7 135 25 177 34 44 55
54 125 54 49 1 57 -2 91 -36z m-30647 -185 c17 -26 1 -50 -30 -46 -34 4 -43
36 -17 55 21 15 34 13 47 -9z m5740 0 c17 -26 1 -50 -30 -46 -34 4 -43 36 -17
55 21 15 34 13 47 -9z m-7163 -198 l0 -200 -30 0 c-23 0 -30 4 -30 20 0 20 -1
20 -30 -2 -107 -79 -234 68 -176 206 30 71 124 102 174 56 12 -11 24 -20 27
-20 3 0 5 32 5 70 l0 70 30 0 30 0 0 -200z m5740 0 l0 -200 -30 0 c-23 0 -30
4 -30 20 0 20 -1 20 -30 -2 -107 -79 -234 68 -176 206 30 71 124 102 174 56
12 -11 24 -20 27 -20 3 0 5 32 5 70 l0 70 30 0 30 0 0 -200z m7033 178 c17
-26 1 -50 -30 -46 -34 4 -43 36 -17 55 21 15 34 13 47 -9z m-1423 -198 l0
-200 -30 0 c-23 0 -30 4 -30 20 0 20 -1 20 -30 -2 -107 -79 -234 68 -176 206
30 71 124 102 174 56 12 -11 24 -20 27 -20 3 0 5 32 5 70 l0 70 30 0 30 0 0
-200z m-9770 155 c0 -32 2 -35 30 -35 25 0 30 -4 30 -25 0 -21 -5 -25 -30 -25
l-30 0 0 -88 c0 -90 8 -112 41 -112 16 0 29 -19 29 -41 0 -17 -77 -10 -101 10
-21 17 -24 28 -27 125 -4 96 -6 106 -23 106 -14 0 -19 7 -19 25 0 18 5 25 20
25 16 0 20 7 20 35 0 32 2 35 30 35 28 0 30 -3 30 -35z m5740 0 c0 -32 2 -35
30 -35 25 0 30 -4 30 -25 0 -21 -5 -25 -30 -25 l-30 0 0 -88 c0 -90 8 -112 41
-112 16 0 29 -19 29 -41 0 -17 -77 -10 -101 10 -21 17 -24 28 -27 125 -4 96
-6 106 -23 106 -14 0 -19 7 -19 25 0 18 5 25 20 25 16 0 20 7 20 35 0 32 2 35
30 35 28 0 30 -3 30 -35z m5610 -20 c0 -32 2 -35 30 -35 25 0 30 -4 30 -25 0
-21 -5 -25 -30 -25 l-30 0 0 -88 c0 -90 8 -112 41 -112 16 0 29 -19 29 -41 0
-17 -77 -10 -101 10 -21 17 -24 28 -27 125 -4 96 -6 106 -23 106 -14 0 -19 7
-19 25 0 18 5 25 20 25 16 0 20 7 20 35 0 32 2 35 30 35 28 0 30 -3 30 -35z
m-12641 -41 c30 -25 51 -75 51 -121 0 -22 -3 -23 -105 -23 -96 0 -105 -2 -105
-19 0 -10 8 -29 19 -42 23 -28 81 -31 109 -6 22 20 72 23 72 4 0 -21 -44 -57
-83 -68 -67 -18 -145 18 -168 78 -14 37 -11 120 6 153 25 49 62 70 121 70 42
0 59 -5 83 -26z m171 1 l0 -24 25 24 c29 30 97 34 133 9 53 -37 73 -154 38
-221 -34 -67 -121 -90 -170 -44 l-26 24 0 -76 0 -77 -30 0 -30 0 0 205 0 205
30 0 c25 0 30 -4 30 -25z m480 9 c90 -54 89 -223 -2 -270 -45 -24 -112 -22
-146 3 -86 62 -80 224 9 270 34 18 106 16 139 -3z m325 -9 c32 -31 32 -55 1
-55 -14 0 -28 5 -31 11 -24 38 -109 27 -103 -14 2 -17 16 -26 65 -42 76 -25
103 -48 103 -90 0 -60 -76 -103 -154 -85 -38 8 -86 48 -86 71 0 15 60 10 66
-5 8 -20 55 -29 88 -16 20 7 27 16 24 33 -2 17 -16 26 -65 42 -80 26 -103 46
-103 88 0 59 37 86 118 87 43 0 57 -5 77 -25z m165 -125 l0 -150 -30 0 -30 0
0 150 0 150 30 0 30 0 0 -150z m4599 124 c30 -25 51 -75 51 -121 0 -22 -3 -23
-105 -23 -96 0 -105 -2 -105 -19 0 -10 8 -29 19 -42 23 -28 81 -31 109 -6 22
20 72 23 72 4 0 -21 -44 -57 -83 -68 -67 -18 -145 18 -168 78 -14 37 -11 120
6 153 25 49 62 70 121 70 42 0 59 -5 83 -26z m171 1 l0 -24 25 24 c29 30 97
34 133 9 53 -37 73 -154 38 -221 -34 -67 -121 -90 -170 -44 l-26 24 0 -76 0
-77 -30 0 -30 0 0 205 0 205 30 0 c25 0 30 -4 30 -25z m480 9 c90 -54 89 -223
-2 -270 -45 -24 -112 -22 -146 3 -86 62 -80 224 9 270 34 18 106 16 139 -3z
m331 -14 c17 -16 28 -34 24 -40 -8 -12 -55 -13 -55 -1 0 5 -13 14 -28 20 -40
17 -85 -1 -80 -32 2 -18 17 -26 76 -45 63 -20 76 -28 87 -55 32 -76 -50 -140
-150 -117 -37 8 -85 48 -85 71 0 16 51 9 77 -11 41 -32 103 -20 103 19 0 26
-17 36 -78 51 -90 21 -118 85 -63 141 26 25 37 29 86 29 49 0 60 -4 86 -30z
m159 -120 l0 -150 -30 0 -30 0 0 150 0 150 30 0 30 0 0 -150z m4469 104 c30
-25 51 -75 51 -121 0 -22 -3 -23 -105 -23 -96 0 -105 -2 -105 -19 0 -10 8 -29
19 -42 23 -28 81 -31 109 -6 22 20 72 23 72 4 0 -21 -44 -57 -83 -68 -67 -18
-145 18 -168 78 -14 37 -11 120 6 153 25 49 62 70 121 70 42 0 59 -5 83 -26z
m171 1 l0 -24 25 24 c29 30 97 34 133 9 53 -37 73 -154 38 -221 -34 -67 -121
-90 -170 -44 l-26 24 0 -76 0 -77 -30 0 -30 0 0 205 0 205 30 0 c25 0 30 -4
30 -25z m480 9 c90 -54 89 -223 -2 -270 -45 -24 -112 -22 -146 3 -82 60 -82
213 0 263 40 24 109 26 148 4z m325 -9 c32 -31 32 -55 1 -55 -14 0 -28 5 -31
11 -24 38 -109 27 -103 -14 2 -17 16 -26 65 -42 76 -25 103 -48 103 -90 0 -60
-76 -103 -154 -85 -38 8 -86 48 -86 71 0 15 60 10 66 -5 8 -20 55 -29 88 -16
20 7 27 16 24 33 -2 17 -16 26 -65 42 -80 26 -103 46 -103 88 0 59 37 86 118
87 43 0 57 -5 77 -25z m165 -125 l0 -150 -30 0 -30 0 0 150 0 150 30 0 30 0 0
-150z m-14455 104 c44 -47 29 -115 -30 -140 -44 -18 -90 -3 -110 37 -21 40
-19 63 11 98 35 42 93 44 129 5z m5740 0 c44 -47 29 -115 -30 -140 -44 -18
-90 -3 -110 37 -21 40 -19 63 11 98 35 42 93 44 129 5z m5590 0 c19 -8 45 -55
45 -84 0 -31 -28 -67 -62 -79 -88 -31 -155 82 -88 149 20 20 71 27 105 14z
m8219 -356 c23 -38 -35 -78 -61 -42 -17 23 -16 29 3 49 20 19 43 16 58 -7z
m1054 -15 c36 -17 82 -76 82 -105 0 -32 -56 -23 -76 11 -46 77 -170 66 -211
-19 -22 -46 -21 -135 2 -183 39 -83 164 -93 209 -16 14 23 24 29 51 29 34 0
34 0 23 -31 -38 -110 -180 -147 -287 -76 -57 38 -76 85 -76 187 0 102 19 149
76 187 68 45 135 50 207 16z m-1507 -151 c37 -90 69 -166 72 -168 2 -3 35 72
73 166 l69 170 43 0 42 0 0 -220 0 -220 -35 0 -34 0 -3 153 -3 152 -61 -150
c-59 -145 -62 -150 -90 -150 -28 0 -31 5 -89 147 -33 81 -63 150 -67 154 -5 4
-8 -63 -8 -149 l0 -157 -30 0 -30 0 0 221 0 220 42 -3 42 -3 67 -163z m1894
157 c138 -38 183 -261 75 -369 -45 -45 -96 -60 -204 -60 l-86 0 0 220 0 220
88 0 c48 0 105 -5 127 -11z m448 -3 c49 -20 69 -50 75 -107 6 -60 -15 -108
-54 -129 -15 -8 -21 -17 -16 -24 5 -6 28 -46 51 -88 l42 -78 -40 0 c-40 0 -40
0 -83 83 l-43 82 -47 3 -48 3 0 -85 0 -86 -35 0 -35 0 0 220 0 220 100 0 c63
0 113 -5 133 -14z m-1883 -261 l0 -165 -35 0 -35 0 0 165 0 165 35 0 35 0 0
-165z m140 139 l0 -26 31 26 c39 33 104 36 142 6 36 -28 47 -76 47 -202 l0
-108 -35 0 -35 0 0 119 c0 117 -1 120 -26 140 -15 12 -34 21 -44 21 -10 0 -29
-9 -44 -21 -25 -20 -26 -23 -26 -140 l0 -119 -35 0 -35 0 0 165 0 165 30 0
c26 0 30 -4 30 -26z m-1719 -43 c82 -82 -28 -209 -126 -145 -13 8 -28 28 -33
43 -35 100 84 176 159 102z m-4947 -87 c9 -8 16 -19 16 -23 0 -14 -25 -31 -46
-31 -31 0 -43 39 -18 57 23 17 29 16 48 -3z m356 -74 l0 -70 20 20 c29 29 100
27 137 -4 28 -24 28 -26 31 -150 l4 -126 -31 0 -31 0 0 107 c0 120 -10 143
-63 143 -57 0 -67 -20 -67 -142 l0 -108 -30 0 -30 0 0 200 0 200 30 0 30 0 0
-70z m530 -130 l0 -200 -30 0 c-24 0 -30 4 -30 22 0 21 0 21 -26 -3 -30 -28
-90 -31 -129 -5 -77 50 -79 217 -3 270 32 23 100 20 132 -5 l26 -20 0 70 0 71
30 0 30 0 0 -200z m-720 135 c0 -32 2 -35 30 -35 25 0 30 -4 30 -25 0 -21 -5
-25 -30 -25 l-31 0 3 -97 c3 -94 4 -97 28 -103 16 -4 26 -14 28 -28 3 -20 -1
-22 -37 -22 -69 0 -81 21 -81 145 l0 105 -25 0 c-20 0 -25 5 -25 25 0 20 5 25
25 25 22 0 25 4 25 35 0 32 2 35 30 35 28 0 30 -3 30 -35z m-11063 -49 c21
-25 23 -36 23 -147 l0 -119 -30 0 c-19 0 -30 5 -30 14 0 10 -9 9 -41 -7 -35
-17 -46 -18 -79 -8 -46 14 -70 43 -70 86 0 47 35 73 116 88 57 11 70 17 72 33
6 43 -70 64 -107 30 -18 -16 -52 -21 -64 -10 -10 11 12 43 41 59 18 10 46 14
86 12 50 -3 63 -8 83 -31z m163 12 l0 -21 23 21 c47 44 142 20 172 -44 33 -69
11 -187 -42 -221 -38 -25 -97 -22 -127 6 l-26 24 0 -76 0 -77 -30 0 -30 0 0
205 0 205 30 0 c24 0 30 -4 30 -22z m344 -95 l39 -118 39 118 c39 115 40 117
70 117 20 0 29 -4 26 -12 -133 -379 -143 -398 -210 -398 -35 0 -39 2 -36 22 2
14 12 24 28 28 14 3 31 17 39 31 12 22 9 37 -42 177 l-55 152 32 0 c32 0 32 0
70 -117z m5227 88 c29 -29 29 -30 29 -150 l0 -121 -30 0 c-19 0 -30 5 -30 14
0 10 -9 9 -41 -7 -35 -17 -45 -18 -80 -8 -26 8 -44 21 -54 41 -36 70 -3 115
100 133 58 11 71 17 73 33 6 43 -70 64 -107 30 -18 -17 -56 -21 -65 -8 -6 10
23 46 49 60 11 6 44 12 73 12 46 0 58 -4 83 -29z m169 7 l0 -21 23 21 c47 44
142 20 172 -44 33 -69 11 -187 -42 -221 -38 -25 -97 -22 -127 6 l-26 24 0 -76
0 -77 -30 0 -30 0 0 205 0 205 30 0 c24 0 30 -4 30 -22z m344 -95 l39 -118 39
118 c39 115 40 117 70 117 20 0 29 -4 26 -12 -133 -379 -143 -398 -210 -398
-35 0 -39 2 -36 22 2 14 12 24 28 28 14 3 31 17 39 31 12 22 9 37 -42 177
l-55 152 32 0 c32 0 32 0 70 -117z m11696 87 c8 -14 8 -26 0 -40 -19 -35 -80
-20 -80 20 0 40 61 55 80 20z m-7491 -92 c14 -53 28 -99 31 -102 4 -3 14 25
24 62 9 37 22 84 27 105 9 35 13 38 42 35 31 -3 32 -5 58 -101 14 -53 28 -100
31 -103 3 -2 13 26 22 63 38 151 34 143 68 143 24 0 29 -4 26 -17 -3 -10 -22
-78 -44 -150 l-38 -133 -32 0 -31 0 -28 105 c-16 58 -31 102 -35 98 -4 -4 -12
-26 -18 -48 -45 -164 -41 -156 -74 -153 -30 3 -31 5 -74 148 -24 80 -44 146
-44 148 0 2 14 2 32 0 31 -3 32 -5 57 -100z m451 -48 l0 -150 -30 0 -30 0 0
150 0 150 30 0 30 0 0 -150z m1020 130 l0 -20 20 20 c11 11 33 20 50 20 25 0
30 -4 30 -25 0 -20 -5 -25 -27 -25 -15 0 -37 -10 -50 -22 -21 -20 -23 -30 -23
-125 l0 -103 -30 0 -30 0 0 150 0 150 30 0 c23 0 30 -4 30 -20z m339 5 c39
-20 43 -33 49 -167 l4 -118 -31 0 c-25 0 -31 4 -31 22 l0 21 -25 -23 c-36 -34
-106 -34 -139 0 -13 14 -25 34 -26 45 -7 70 16 92 114 110 56 10 61 13 64 38
3 21 -2 29 -22 37 -27 10 -86 -4 -86 -21 0 -5 -13 -9 -30 -9 -39 0 -39 21 1
54 24 20 41 26 80 26 28 0 63 -7 78 -15z m190 -87 c14 -53 28 -99 31 -102 4
-3 14 25 24 62 9 37 22 84 27 105 9 35 13 38 42 35 31 -3 32 -5 58 -101 14
-53 28 -100 31 -103 3 -2 13 26 22 63 38 151 34 143 68 143 24 0 29 -4 26 -17
-3 -10 -22 -78 -44 -150 l-38 -133 -32 0 -31 0 -28 105 c-16 58 -31 102 -35
98 -4 -4 -12 -26 -18 -48 -45 -164 -41 -156 -74 -153 -30 3 -31 5 -74 148 -24
80 -44 146 -44 148 0 2 14 2 32 0 31 -3 32 -5 57 -100z m-14614 78 c89 -38 65
-166 -33 -166 -95 0 -125 128 -38 166 38 16 31 16 71 0z m5740 0 c90 -38 64
-166 -34 -166 -32 0 -44 6 -65 31 -14 17 -26 39 -26 49 0 35 24 73 55 86 37
16 30 16 70 0z m5606 -16 c19 0 59 -53 59 -77 0 -31 -25 -79 -45 -87 -82 -31
-156 38 -124 115 13 32 62 62 87 54 8 -3 18 -5 23 -5z m9303 -423 c21 -16 18
-45 -6 -61 -35 -22 -74 27 -48 59 15 18 31 19 54 2z m-1064 -197 l0 -190 100
0 100 0 0 -30 0 -30 -135 0 -135 0 0 220 0 220 35 0 35 0 0 -190z m490 58 c52
-36 72 -82 68 -155 -6 -98 -61 -157 -146 -157 -96 0 -155 62 -156 163 -1 108
54 171 150 171 37 0 60 -6 84 -22z m334 1 l26 -20 0 20 c0 17 6 21 35 21 l35
0 0 -182 c0 -166 -2 -186 -20 -216 -47 -76 -191 -84 -255 -13 -16 19 -17 24
-5 31 22 14 35 12 75 -11 26 -15 45 -20 67 -15 50 10 68 33 68 84 l0 45 -24
-22 c-30 -28 -104 -31 -142 -6 -48 31 -65 73 -62 150 3 76 29 128 72 145 40
16 102 11 130 -11z m246 -144 l0 -165 -30 0 c-34 0 -33 -7 -32 170 1 174 -2
160 32 160 l30 0 0 -165z m300 150 c28 -14 60 -60 60 -85 0 -22 -53 -9 -80 20
-36 39 -72 39 -111 1 -25 -25 -29 -37 -29 -84 0 -45 5 -61 26 -86 36 -43 84
-43 116 -1 16 22 29 30 47 28 33 -4 36 -18 8 -59 -40 -60 -143 -73 -204 -26
-34 27 -63 92 -63 142 0 56 32 121 72 145 40 24 116 27 158 5z"/>
<path d="M8540 18760 l0 -80 240 0 240 0 0 80 0 80 -240 0 -240 0 0 -80z"/>
<path d="M9420 18760 l0 -80 240 0 240 0 0 80 0 80 -240 0 -240 0 0 -80z"/>
<path d="M17327 18833 c-4 -3 -7 -39 -7 -80 l0 -73 240 0 240 0 0 80 0 80
-233 0 c-129 0 -237 -3 -240 -7z"/>
<path d="M19520 18600 l0 -240 240 0 240 0 0 240 0 240 -240 0 -240 0 0 -240z"/>
<path d="M22157 18833 c-4 -3 -7 -39 -7 -80 l0 -73 240 0 240 0 0 80 0 80
-233 0 c-129 0 -237 -3 -240 -7z"/>
<path d="M8642 16033 c-13 -5 -42 -55 -42 -73 0 -6 32 -10 85 -10 82 0 85 1
85 23 0 48 -73 83 -128 60z"/>
<path d="M4921 12529 c-50 -10 -71 -24 -71 -50 0 -29 28 -49 69 -49 47 0 81
33 81 78 0 35 -3 36 -79 21z"/>
<path d="M5475 12645 c-14 -13 -25 -33 -25 -45 0 -19 6 -20 85 -20 76 0 85 2
85 19 0 10 -9 30 -21 45 -28 36 -89 37 -124 1z"/>
<path d="M5846 12639 c-21 -25 -26 -41 -26 -86 0 -47 4 -59 29 -84 16 -16 39
-29 51 -29 37 0 79 29 86 58 3 15 8 34 10 42 7 28 -15 95 -37 113 -35 28 -83
22 -113 -14z"/>
<path d="M7060 12533 c-75 -12 -101 -40 -75 -79 11 -18 25 -24 51 -24 48 0 70
14 83 51 21 60 15 64 -59 52z"/>
<path d="M9361 12529 c-50 -10 -71 -24 -71 -50 0 -29 28 -49 69 -49 47 0 81
33 81 78 0 35 -3 36 -79 21z"/>
<path d="M10746 12639 c-22 -25 -26 -41 -26 -91 0 -53 3 -63 29 -89 67 -66
151 -13 151 96 0 102 -95 154 -154 84z"/>
<path d="M12035 12533 c-32 -7 -65 -19 -72 -25 -19 -16 -16 -56 6 -68 60 -31
131 9 131 75 0 19 -1 35 -2 34 -2 -1 -30 -8 -63 -16z"/>
<path d="M19050 12211 l0 -91 55 0 c30 0 65 5 78 11 47 21 62 98 28 140 -16
19 -30 24 -90 27 l-71 4 0 -91z"/>
<path d="M24951 12184 c-17 -47 -31 -89 -31 -95 0 -5 30 -9 66 -9 49 0 65 3
62 13 -3 6 -17 49 -32 95 -15 45 -29 82 -31 82 -2 0 -17 -38 -34 -86z"/>
<path d="M25670 12215 l0 -88 68 6 c56 5 71 11 91 33 18 22 22 35 17 63 -8 53
-27 65 -106 69 l-70 4 0 -87z"/>
<path d="M32600 12211 l0 -91 55 0 c30 0 65 5 78 11 47 21 62 98 28 140 -16
19 -30 24 -90 27 l-71 4 0 -91z"/>
<path d="M19755 12053 c-32 -7 -65 -19 -72 -25 -19 -16 -16 -56 6 -68 60 -31
131 9 131 75 0 19 -1 35 -2 34 -2 -1 -30 -8 -63 -16z"/>
<path d="M20065 12166 c-30 -30 -41 -87 -26 -136 13 -46 29 -59 73 -67 27 -4
41 0 64 20 27 23 29 31 29 90 0 55 -4 69 -24 91 -32 34 -83 35 -116 2z"/>
<path d="M21065 12053 c-32 -7 -65 -19 -72 -25 -19 -16 -16 -56 6 -68 60 -31
131 9 131 75 0 19 -1 35 -2 34 -2 -1 -30 -8 -63 -16z"/>
<path d="M21540 12165 c-31 -33 -39 -118 -16 -163 29 -57 86 -69 133 -28 26
22 28 30 28 94 0 61 -3 74 -24 96 -33 35 -88 36 -121 1z"/>
<path d="M22215 12053 c-32 -7 -65 -19 -72 -25 -19 -16 -16 -56 6 -68 60 -31
131 9 131 75 0 19 -1 35 -2 34 -2 -1 -30 -8 -63 -16z"/>
<path d="M23052 12183 c-13 -5 -42 -55 -42 -73 0 -6 32 -10 85 -10 82 0 85 1
85 23 0 48 -73 83 -128 60z"/>
<path d="M26076 12159 c-22 -25 -26 -41 -26 -91 0 -53 3 -63 29 -89 67 -66
151 -13 151 96 0 102 -95 154 -154 84z"/>
<path d="M27065 12165 c-14 -13 -25 -33 -25 -45 0 -19 6 -20 85 -20 76 0 85 2
85 19 0 10 -9 30 -21 45 -28 36 -89 37 -124 1z"/>
<path d="M28206 12159 c-22 -25 -26 -41 -26 -91 0 -53 3 -63 29 -89 67 -66
151 -13 151 96 0 102 -95 154 -154 84z"/>
<path d="M28593 12166 c-25 -22 -28 -30 -28 -91 0 -61 2 -69 29 -92 23 -20 37
-24 64 -20 44 8 60 21 73 67 34 113 -59 204 -138 136z"/>
<path d="M33245 12166 c-67 -67 -29 -216 55 -216 76 0 116 99 78 193 -20 52
-91 65 -133 23z"/>
<path d="M33626 12165 c-66 -71 -23 -215 64 -215 62 0 106 95 80 174 -22 68
-99 90 -144 41z"/>
<path d="M32945 11278 c-25 -29 -27 -38 -23 -96 4 -55 8 -68 32 -88 15 -13 38
-24 51 -24 60 0 103 84 85 165 -18 79 -96 102 -145 43z"/>
<path d="M32260 11173 c-75 -12 -101 -40 -75 -79 11 -18 25 -24 51 -24 48 0
70 14 83 51 21 60 15 64 -59 52z"/>
<path d="M33512 11303 c-13 -5 -42 -55 -42 -73 0 -6 32 -10 85 -10 82 0 85 1
85 23 0 48 -73 83 -128 60z"/>
<path d="M19640 9934 l0 -86 64 4 c83 5 106 24 106 85 0 64 -23 83 -105 83
l-65 0 0 -86z"/>
<path d="M22010 9955 l0 -65 59 0 c95 0 143 58 91 110 -16 16 -33 20 -85 20
l-65 0 0 -65z"/>
<path d="M22010 9771 l0 -71 69 0 c80 0 114 19 114 64 0 48 -33 70 -113 74
l-70 4 0 -71z"/>
<path d="M25630 9939 l0 -82 68 6 c77 7 102 27 102 83 0 53 -31 74 -107 74
l-63 0 0 -81z"/>
<path d="M26395 9894 c-26 -28 -33 -68 -23 -129 16 -98 132 -102 158 -4 31
114 -65 209 -135 133z"/>
<path d="M31629 9964 c-21 -53 -49 -137 -49 -146 0 -4 27 -8 60 -8 43 0 60 4
60 13 0 15 -47 158 -55 165 -2 3 -10 -8 -16 -24z"/>
<path d="M20313 9786 c-68 -14 -91 -36 -75 -71 10 -21 18 -25 56 -25 36 0 48
5 65 26 20 25 30 85 14 83 -5 -1 -32 -6 -60 -13z"/>
<path d="M20613 9896 c-25 -22 -28 -31 -28 -84 0 -50 4 -65 24 -86 45 -48 120
-27 137 39 12 47 -3 108 -31 132 -34 30 -67 29 -102 -1z"/>
<path d="M21566 9785 c-62 -13 -87 -33 -79 -66 6 -21 36 -32 78 -27 34 4 68
46 63 80 l-3 25 -59 -12z"/>
<path d="M26018 9890 c-44 -45 -34 -55 60 -58 77 -3 82 -2 82 18 0 12 -11 32
-25 45 -34 35 -78 33 -117 -5z"/>
<path d="M26806 9785 c-62 -13 -87 -33 -79 -66 6 -21 36 -32 78 -27 34 4 68
46 63 80 l-3 25 -59 -12z"/>
<path d="M27304 9785 c-57 -11 -84 -29 -84 -54 0 -27 21 -41 61 -41 52 0 81
26 77 70 l-3 36 -51 -11z"/>
<path d="M28823 9905 c-29 -20 -47 -83 -39 -129 13 -70 94 -99 141 -51 20 19
25 34 25 74 0 61 -14 95 -47 110 -33 15 -54 14 -80 -4z"/>
<path d="M32674 9908 c-20 -9 -44 -47 -44 -68 0 -13 157 -13 165 0 7 12 -12
50 -34 67 -19 15 -58 15 -87 1z"/>
<path d="M33033 9896 c-25 -22 -28 -30 -28 -89 0 -55 4 -69 24 -91 16 -17 35
-26 56 -26 21 0 40 9 56 26 20 22 24 36 24 91 0 59 -3 67 -28 89 -15 13 -39
24 -52 24 -13 0 -37 -11 -52 -24z"/>
<path d="M34324 9905 c-50 -35 -58 -143 -13 -191 48 -51 138 -15 140 58 3 74
-8 111 -40 135 -22 17 -62 16 -87 -2z"/>
<path d="M20700 9084 l0 -86 64 4 c83 5 106 24 106 85 0 64 -23 83 -105 83
l-65 0 0 -86z"/>
<path d="M27495 9046 c-64 -64 -29 -206 51 -206 55 0 84 40 84 114 0 56 -15
91 -47 105 -37 17 -62 13 -88 -13z"/>
<path d="M21818 9040 c-44 -45 -34 -55 60 -58 77 -3 82 -2 82 18 0 12 -11 32
-25 45 -34 35 -78 33 -117 -5z"/>
<path d="M27144 9055 c-50 -35 -58 -143 -13 -191 48 -51 138 -15 140 58 3 74
-8 111 -40 135 -22 17 -62 16 -87 -2z"/>
<path d="M27868 9040 c-44 -45 -34 -55 60 -58 77 -3 82 -2 82 18 0 12 -11 32
-25 45 -34 35 -78 33 -117 -5z"/>
<path d="M32700 9052 c-43 -35 -43 -159 0 -194 73 -59 155 27 130 137 -15 69
-80 97 -130 57z"/>
<path d="M33281 9051 c-46 -46 -46 -157 0 -193 31 -26 81 -23 109 7 46 49 34
166 -19 195 -31 16 -69 12 -90 -9z"/>
<path d="M33654 9055 c-50 -35 -58 -143 -13 -191 48 -51 138 -15 140 58 3 74
-8 111 -40 135 -22 17 -62 16 -87 -2z"/>
<path d="M12394 8741 c-43 -26 -64 -76 -64 -151 0 -109 49 -170 137 -170 77 0
133 71 133 170 0 64 -19 109 -59 143 -40 33 -101 36 -147 8z"/>
<path d="M2017 8589 c-62 -36 -60 -185 3 -219 32 -17 87 -4 106 25 36 55 26
159 -19 190 -25 17 -64 19 -90 4z"/>
<path d="M13472 8643 c-13 -5 -42 -55 -42 -73 0 -6 32 -10 85 -10 82 0 85 1
85 23 0 48 -73 83 -128 60z"/>
<path d="M15180 8513 c-75 -12 -101 -40 -75 -79 11 -18 25 -24 51 -24 48 0 70
14 83 51 21 60 15 64 -59 52z"/>
<path d="M15732 8643 c-13 -5 -42 -55 -42 -73 0 -6 32 -10 85 -10 82 0 85 1
85 23 0 48 -73 83 -128 60z"/>
<path d="M16093 8626 c-25 -22 -28 -30 -28 -91 0 -61 2 -69 29 -92 23 -20 37
-24 64 -20 44 8 60 21 73 67 34 113 -59 204 -138 136z"/>
<path d="M2380 8575 c-31 -33 -39 -118 -16 -163 29 -57 86 -69 133 -28 26 22
28 30 28 94 0 61 -3 74 -24 96 -33 35 -88 36 -121 1z"/>
<path d="M3865 8463 c-32 -7 -65 -19 -72 -25 -19 -16 -16 -56 6 -68 60 -31
131 9 131 75 0 19 -1 35 -2 34 -2 -1 -30 -8 -63 -16z"/>
<path d="M4406 8578 c-14 -13 -26 -32 -28 -43 -3 -19 3 -20 85 -23 82 -3 87
-2 87 18 0 12 -11 32 -25 45 -32 33 -84 33 -119 3z"/>
<path d="M4781 8583 c-55 -44 -44 -175 16 -202 39 -18 63 -13 94 18 24 25 29
37 29 81 0 55 -19 104 -45 114 -30 11 -73 6 -94 -11z"/>
<path d="M6976 8569 c-44 -52 -37 -59 64 -59 96 0 100 2 75 49 -16 33 -33 41
-80 41 -25 0 -40 -8 -59 -31z"/>
<path d="M9177 8465 c-66 -15 -87 -29 -87 -59 0 -32 19 -46 62 -46 52 0 88 35
88 85 0 19 -1 34 -2 34 -2 -1 -29 -7 -61 -14z"/>
<path d="M9706 8569 c-44 -52 -37 -59 64 -59 96 0 100 2 75 49 -16 33 -33 41
-80 41 -25 0 -40 -8 -59 -31z"/>
<path d="M10091 8583 c-55 -44 -44 -175 16 -202 39 -18 63 -13 94 18 24 25 29
37 29 81 0 55 -19 104 -45 114 -30 11 -73 6 -94 -11z"/>
<path d="M28644 8215 c-53 -36 -58 -150 -9 -192 35 -31 75 -30 106 3 20 22 24
36 24 91 0 59 -3 67 -28 89 -32 27 -63 31 -93 9z"/>
<path d="M20589 8201 c-24 -25 -29 -37 -29 -81 0 -81 28 -120 85 -120 57 0 85
39 85 120 0 44 -5 56 -29 81 -18 17 -40 29 -56 29 -16 0 -38 -12 -56 -29z"/>
<path d="M21154 8095 c-57 -11 -84 -29 -84 -54 0 -27 21 -41 61 -41 52 0 81
26 77 70 l-3 36 -51 -11z"/>
<path d="M26225 8205 c-14 -13 -25 -33 -25 -45 0 -18 6 -20 80 -20 78 0 80 1
80 24 0 31 -43 66 -82 66 -17 0 -39 -10 -53 -25z"/>
<path d="M26979 8201 c-24 -25 -29 -37 -29 -81 0 -81 28 -120 85 -120 57 0 85
39 85 120 0 44 -5 56 -29 81 -18 17 -40 29 -56 29 -16 0 -38 -12 -56 -29z"/>
<path d="M27674 8218 c-20 -9 -44 -47 -44 -68 0 -13 157 -13 165 0 7 12 -12
50 -34 67 -19 15 -58 15 -87 1z"/>
<path d="M29024 8218 c-20 -9 -44 -47 -44 -68 0 -13 157 -13 165 0 7 12 -12
50 -34 67 -19 15 -58 15 -87 1z"/>
<path d="M34025 8205 c-14 -13 -25 -33 -25 -45 0 -18 6 -20 80 -20 74 0 80 2
80 20 0 32 -44 70 -80 70 -19 0 -40 -9 -55 -25z"/>
<path d="M21775 7354 c-26 -28 -33 -68 -23 -129 16 -101 135 -101 158 0 26
116 -66 204 -135 129z"/>
<path d="M34305 7354 c-26 -28 -33 -68 -23 -129 16 -101 135 -101 158 0 26
116 -66 204 -135 129z"/>
<path d="M21077 7369 c-20 -12 -49 -64 -40 -73 4 -3 42 -6 85 -6 72 0 78 2 78
20 0 50 -76 86 -123 59z"/>
<path d="M21434 7368 c-20 -9 -44 -47 -44 -68 0 -13 157 -13 165 0 7 12 -12
50 -34 67 -19 15 -58 15 -87 1z"/>
<path d="M32999 7351 c-24 -25 -29 -37 -29 -81 0 -80 28 -120 84 -120 80 0
115 142 51 206 -33 32 -70 31 -106 -5z"/>
<path d="M33363 7356 c-25 -22 -28 -31 -28 -84 0 -50 4 -65 24 -86 45 -48 120
-27 137 39 12 47 -3 108 -31 132 -34 30 -67 29 -102 -1z"/>
<path d="M34014 7245 c-57 -11 -84 -29 -84 -54 0 -27 21 -41 61 -41 52 0 81
26 77 70 l-3 36 -51 -11z"/>
<path d="M34697 7369 c-20 -12 -49 -64 -40 -73 4 -3 42 -6 85 -6 72 0 78 2 78
20 0 50 -76 86 -123 59z"/>
<path d="M2592 7053 c-19 -8 -42 -59 -42 -95 0 -18 9 -48 20 -65 17 -28 25
-33 59 -33 45 0 67 22 77 77 7 40 -12 100 -36 113 -20 10 -56 12 -78 3z"/>
<path d="M8332 7053 c-19 -8 -42 -59 -42 -95 0 -18 9 -48 20 -65 17 -28 25
-33 59 -33 45 0 67 22 77 77 7 40 -12 100 -36 113 -20 10 -56 12 -78 3z"/>
<path d="M13942 7033 c-19 -8 -42 -59 -42 -95 0 -18 9 -48 20 -65 17 -28 25
-33 59 -33 45 0 67 22 77 77 7 40 -12 100 -36 113 -20 10 -56 12 -78 3z"/>
<path d="M2920 7040 c-39 -39 -27 -50 55 -50 41 0 75 4 75 9 0 4 -9 20 -21 35
-26 33 -79 36 -109 6z"/>
<path d="M3254 7039 c-14 -16 -19 -36 -19 -79 0 -70 21 -100 70 -100 42 0 65
18 74 63 11 46 -2 107 -25 124 -28 20 -78 16 -100 -8z"/>
<path d="M3581 7034 c-30 -38 -29 -114 2 -150 26 -30 74 -37 101 -15 40 34 44
133 5 172 -29 29 -83 25 -108 -7z"/>
<path d="M8660 7040 c-39 -39 -27 -50 55 -50 41 0 75 4 75 9 0 4 -9 20 -21 35
-26 33 -79 36 -109 6z"/>
<path d="M8994 7039 c-14 -16 -19 -36 -19 -79 0 -70 21 -100 70 -100 42 0 65
18 74 63 11 46 -2 107 -25 124 -28 20 -78 16 -100 -8z"/>
<path d="M9321 7034 c-30 -38 -29 -114 2 -150 26 -30 74 -37 101 -15 40 34 44
133 5 172 -29 29 -83 25 -108 -7z"/>
<path d="M14270 7020 c-39 -39 -27 -50 55 -50 41 0 75 4 75 9 0 4 -9 20 -21
35 -26 33 -79 36 -109 6z"/>
<path d="M14604 7019 c-14 -16 -19 -36 -19 -79 0 -70 21 -100 70 -100 42 0 65
18 74 63 11 46 -2 107 -25 124 -28 20 -78 16 -100 -8z"/>
<path d="M14931 7014 c-30 -38 -29 -114 2 -150 26 -30 74 -37 101 -15 40 34
44 133 5 172 -29 29 -83 25 -108 -7z"/>
<path d="M21930 6470 l0 -160 58 0 c108 0 162 52 162 158 0 112 -49 162 -157
162 l-63 0 0 -160z"/>
<path d="M22370 6549 l0 -82 66 6 c83 8 104 25 104 83 0 58 -24 74 -107 74
l-63 0 0 -81z"/>
<path d="M14828 6259 c-27 -15 -41 -81 -28 -129 12 -43 33 -60 78 -60 46 0 67
32 67 100 0 43 -5 63 -19 79 -21 23 -69 28 -98 10z"/>
<path d="M3135 6173 c-11 -2 -32 -9 -47 -15 -51 -19 -28 -78 30 -78 33 0 72
38 72 71 0 30 -7 33 -55 22z"/>
<path d="M3411 6264 c-30 -38 -29 -114 2 -150 52 -60 127 -15 127 75 0 64 -28
101 -75 101 -24 0 -39 -7 -54 -26z"/>
<path d="M8867 6170 c-48 -9 -71 -31 -63 -58 12 -37 76 -41 110 -6 19 19 22
75 4 73 -7 -1 -30 -5 -51 -9z"/>
<path d="M9151 6264 c-30 -38 -29 -114 2 -150 52 -60 127 -15 127 75 0 64 -28
101 -75 101 -24 0 -39 -7 -54 -26z"/>
<path d="M15407 6150 c-21 -4 -45 -14 -54 -23 -15 -14 -15 -18 1 -41 32 -50
110 -24 122 42 7 36 4 37 -69 22z"/>
<path d="M21014 5675 c-50 -35 -58 -143 -13 -191 48 -51 138 -15 140 58 3 74
-8 111 -40 135 -22 17 -62 16 -87 -2z"/>
<path d="M21373 5675 c-29 -20 -47 -83 -39 -129 13 -70 94 -99 141 -51 20 19
25 34 25 74 0 61 -14 95 -47 110 -33 15 -54 14 -80 -4z"/>
</g>
</svg>
